<svg xmlns="http://www.w3.org/2000/svg" viewBox="0 0 300 300"><defs><style>.a,.d{fill:#212121}.a,.b{fill-rule:evenodd}.b,.c{fill:#fff}</style></defs><title>Meeting</title><path d="M83.489,72.023c-1.641-.591-9.88-4.218-23.679-1.009A60.31,60.31,0,0,0,24.076,93.036c-10.06,12.853-20.13,41.637-8.055,60.575A24.479,24.479,0,0,0,33.665,164.76c.9.128,4.924-12.637,14.038-15.285a19.291,19.291,0,0,0-2.488-5.416c-.169-1.908,76.659-10.9,103.417-10.9,5.591-21.065,5.521-42.5,4.83-63.982a114.513,114.513,0,0,1-12.559-.438c-2.337-.3-13.053,29.306-16.246,32.5a.11.11,0,0,1-.137,0c-.593-.591-11.927-14.342-22.766-20.734C90.817,74.048,89.547,74.205,83.489,72.023Z" class="a"/><path d="M70.847,69.419a34.437,34.437,0,0,1,12.724,2.373c0,.2,4.788,1.22,10.6,4.149,10.749,5.528,17.523,10.1,30.418,24.76,3.3-4.264,12.362-29.166,15.458-32.068.876-.8-.02-.141,8.141.01,2.851.045,4.354.006,5.362.006a.532.532,0,0,1,.437.417c.144,1.078.627,19.293.153,29.023a163,163,0,0,1-4.54,33.732c-.426,1.729-.442,1.668-.6,1.81h0c-.4.259-.413-.033-9.492.371,0,.1-29.144,1.181-74,7.058-3.183.418-16.393,2.167-19.467,3.195a19.768,19.768,0,0,1,2.145,4.728c.111.388.2.6-.055.907h0c-.733.635-5.835.523-12.059,12.058-2.118,3.946-1.628,3.611-4.216,3.09a24.89,24.89,0,0,1-15.322-9.674c-7.891-10.8-7.762-25.624-4.307-38.6,4.3-15.892,12.841-28.988,26.632-37.745C49.149,72.522,61.83,69.373,70.847,69.419Zm-7.554,1.22c-20.107,3.4-35.388,14.644-43.877,30.528-14.31,27.016-10.423,59.261,14.1,62.981,1.424-1.969,5.279-12.23,13.455-15.066a18.824,18.824,0,0,0-2.1-4.445c-.18-.287-.4-.541-.143-.96a2.25,2.25,0,0,1,1.207-.644c8.907-2.624,76.653-10.387,102.234-10.476,5.349-20.365,5.438-41.871,4.778-62.846a108.227,108.227,0,0,1-12.058-.468c-2.345,1.051-12.919,29.382-15.95,32.28a.514.514,0,0,1-.562.095c-.455-.222-10.672-13-21.018-19.746a107.383,107.383,0,0,0-12.9-7.061c-2.173-.924-4-1.454-7.054-2.56h0l0,0A37.5,37.5,0,0,0,63.293,70.639Z" class="a"/><path d="M62.638,70.435c12.1-2.135,19.326,1.039,20.851,1.588,3.32,1.2,5.2,1.69,8.028,2.954-1.048,10.511-.8,4.567-3.2,39.277C80.767,101.21,66.738,77.514,62.638,70.435Z" class="b"/><path d="M74.574,69.505a37.6,37.6,0,0,1,10.537,2.566,69.164,69.164,0,0,1,6.626,2.408c.872.464-.168-.31-2.126,29.936-.1,1.368-.675,9.8-.7,9.982a.61.61,0,0,1-.608.463c-.5-.055-.492-.283-1.234-1.555-.059-.1-23.8-40.993-24.655-42.783A.241.241,0,0,1,62.6,70.2l.009.048-.01-.052A44.234,44.234,0,0,1,74.574,69.505ZM63.031,70.621c5.1,8.621,6.848,11.018,24.817,41.614C90.1,80.284,89.9,85.227,90.933,75.312c-1.811-.816-3.792-1.485-5.666-2.137C81.465,71.828,75.043,68.711,63.031,70.621Z" class="a"/><path d="M84.393,107.506c.128-3.247-.321-16.232-.257-18.3a18.173,18.173,0,0,0,2.7-.334s1.384,3.232,2.63,6.675c-.574,7.335-.675,11.907-1.194,19.4h0l.048-.695C87.145,112.227,85.816,109.944,84.393,107.506Z" class="a"/><path d="M88.144,90.467c.394.978,1.127,2.782,1.595,4.068.452,1.185.352.532.162,3.372-.288,3.727-.551,9.978-1.149,16.724-.032.371-.018.749-.5.769a.46.46,0,0,1-.424-.482h.009v-.014l-.013.013.025-.349h-.009c.018-.4.342.353-2.652-5.115-1.087-1.986-1.024-1.831-1.036-1.957.179.007.45.017,0,0,0-3.663-.517-12.326-.577-16.819-.047-1.665-.024-1.683.18-1.9.261-.2.321-.124.785-.157C87.693,88.35,86.871,87.451,88.144,90.467Zm-3.437-.692c0,.106.145,16.869-.067,17.673.116.194,2.534,4.079,3.275,5.309.35-7.662.381-9.53.932-17.124.1,0-2.338-5.994-2.38-6.094C86.022,89.612,85.14,89.749,84.707,89.775Z" class="a"/><path d="M52.861,109.189a71.675,71.675,0,0,1-.871,8.018c-1.043,6.268-3.877,15-7.2,20.524a22.67,22.67,0,0,1-2.01,2.974c-.237.246-.418.223-.525.09l.036-.346.346.037a.229.229,0,0,0-.279-.063l.007,0-.016.01.008-.006-.012.008.008-.006-.009.007.011-.011-.006,0c.768-.767,5.456-9.658,8.434-22.834,1.96-8.756,1.253-8.168,1.86-8.672Z" class="b"/><path d="M123.169,97.688c.037-.174.044-.115.022-.215v0l-.009-.021.006.006-.006-.009,0,0a27.373,27.373,0,0,1,4.13,6.067,7.529,7.529,0,0,1,.748,2.488l-.238.248-.244-.24,0-.011v0l0-.009V106c-.189-.715-2.774-3.765-4.766-8.172-.021-.044-.066-.143-.089-.21l0-.029h0l0-.043a.281.281,0,0,1,.019-.081h0l.018-.038h0l.339-.08h0Z" class="b"/><path d="M86.143,88.841c-1.481.369-1.707.665-2.016.357a39.436,39.436,0,0,0-4.246-3.158c1.347-2.563,2.816-6.243,3.125-6.8a10.437,10.437,0,0,0,1.249.465c1.461,1.514,2.768,2.81,3.181,3.19C87.3,84.493,87.35,88.54,86.143,88.841Z" class="a"/><path d="M84.3,79.084c.352.109.262.071.92.754,2.924,3.028,2.666,2.7,2.74,2.935a23.341,23.341,0,0,1-.773,5.158c-.18.465-.458,1.013-.956,1.137h0c-2.589.817-1.469.927-3.44-.453-3.015-2.111-3.631-2.025-3.449-2.754.083-.185-.032.078.584-1.208v0c.668-1.359,2.352-5.518,2.663-5.861C83.047,78.424,83.256,78.749,84.3,79.084Zm1.79,9.518h-.006l.022-.008-.006,0,.006,0,.015-.007,0,0a.646.646,0,0,0,.1-.07s.042-.043.046-.046l.006-.009.009-.009c.659-.989.6-3.961.6-5.33-.1-.1.186.181-.85-.791v0c-2.656-2.578-1.753-1.944-2.725-2.315-.224.5-1.483,3.458-2.34,5.14v0c-.1.2-.314.614-.366.714.232.17,1.055.718,2.4,1.81a12.028,12.028,0,0,1,1.4,1.29l-.012-.008.009.007.006.007-.012-.008.015.01-.012-.007.012.008-.015-.006.012.006-.015-.005.006,0,.009,0-.018,0,.018,0-.015,0,.018,0h0c.2,0,.792-.215,1.671-.386v0Z" class="b"/><path d="M85.212,72.628c2.248.773,3.882,1.282,6.054,2.238a43.742,43.742,0,0,1-.345,8.813c-.012.166-.168,2.3-.183,2.294-.492-.246-1.085-1.181-1.558-1.56A55.742,55.742,0,0,1,84.255,79.7c.4.113.672.133.785.04C86.247,78.748,85.685,75.064,85.212,72.628Z" class="b"/><path d="M84.79,79.272l0,0,.006-.008.009-.009.006-.009.01-.009c1.217-1.826-.061-6.5.229-6.79l.033-.024a.253.253,0,0,1,.165-.032l.04.01c-.055.16-.147.427,0,0a61.617,61.617,0,0,1,6.07,1.98c.484.2.389.353.483,1.571a36.684,36.684,0,0,1-.254,7.089c-.306,2.924-.083,3.1-.507,3.439h0c-.787.446-1.435-.775-2.187-1.5a39.66,39.66,0,0,1-4.2-4c-.98-1.054-.942-.967-.986-1.237a.543.543,0,0,1,.406-.564C84.427,79.127,84.465,79.24,84.79,79.272Zm.632.825c.765.778,2.442,2.421,3.514,3.328a7.187,7.187,0,0,1,1.3,1.22,70.258,70.258,0,0,0,.568-7.722c0-.221,0-1.521-.024-1.744-1.029-.551-4.856-2.01-5.23-2.154C85.974,74.85,86.815,78.841,85.422,80.1Zm-.7-.768.006,0-.015.013.006,0-.013.009.025-.019Zm.012-.007h0Z" class="a"/><path d="M67.927,69.794c.87,1.473,10.695,7.552,15.079,9.442-.428.777-3.089,7.556-4.564,9.032-.246.274-11.966-9.489-16.61-14.133A18.089,18.089,0,0,1,59.6,71.063,50.223,50.223,0,0,1,67.927,69.794Z" class="b"/><path d="M67.988,69.559l.033.012a.247.247,0,0,1,.064.04l.028.027.021.03h0c.86,1.406,11.788,7.611,12.177,7.649,3,1.555,2.865,1.279,3.138,1.572a.563.563,0,0,1,.043.634c-.147.375.579-1.354-1.592,3.656-.413.925-2.372,5.395-3.345,5.687-.356.035-.434-.087-.761-.243-1.309-.654-8.511-6.923-9.492-7.774-7.547-6.685-7.491-6.951-9.04-9.507a.445.445,0,0,1-.049-.474c.147-.234.268-.221.637-.3A48.939,48.939,0,0,1,67.988,69.559ZM60.3,71.334c1.3,1.975,1.427,2.067,4.213,4.586,2.785,2.5,10.709,9.425,13.781,11.592a55.454,55.454,0,0,0,3.953-8,77.405,77.405,0,0,1-8.172-4.7c-.813-.521-5.874-3.885-6.272-4.759A51.03,51.03,0,0,0,60.3,71.334Z" class="a"/><path d="M91.517,74.976a115.977,115.977,0,0,1,10.42,5.631c-1.79,4.284-3.161,7.662-6.858,15.217-.208.429,5.132.636,5.966,1.469.216.215-13.838,31.678-13.884,31.778a.71.71,0,0,1-.065.248c-.1.1-.03-.048.065-.248.525-3.242,2.474-36.918,3.7-47.93C91.089,79.081,91.312,77.029,91.517,74.976Z" class="b"/><path d="M97.282,77.563c.1.054,4.8,2.612,4.979,2.842.127.248.12.129-.73,2.224-2.92,7.031-2.663,6.34-5.737,12.939,1.669.35,4.744.457,5.682,1.357.31.44.626-.159-5.933,14.73-7.619,17.221-7.6,17.036-7.6,17.137h0a4.168,4.168,0,0,1-.174.412h0c-.067.141-.03.336-.263.566h0a.624.624,0,0,1-.8.077h0a.618.618,0,0,1-.232-.7c.683-2.25,1.7-28.061,4.632-52.657.175-1.581.114-1.752.433-1.754a.276.276,0,0,1,.08.02c-.083.185-.106.233,0,0C93.069,75.385,95.232,76.439,97.282,77.563Zm-5.557-2.177c-1.852,19.473-2.087,30.333-3.6,49.99,1.021-2.35,11.372-25.385,12.256-27.829-.86-.43-4.482-.749-5.361-1.086a.742.742,0,0,1-.434-.393c-.227-.73.567-.647,6.871-15.308a104.262,104.262,0,0,0-9.727-5.414Z" class="a"/><path d="M87.918,119.973c-9.25-5.6-27.371-16.931-27.554-17.481-.444-1.333,7.083-8.225,6.881-8.626-.256-.514-15.753-16.6-18.554-19.468a74.741,74.741,0,0,1,13.947-3.963c4.1,7.079,18.129,30.775,25.68,43.819C88.178,116.291,88.043,118.219,87.918,119.973Z" class="b"/><path d="M60.068,102.96a.828.828,0,0,1-.224-.874c.419-1.821,5.217-6.339,6.668-8.11.049-.06.052-.037-.022-.12C64.646,91.8,56.466,83.321,54.511,81.288c-6.926-7.186-6.355-6.479-6.424-6.818a.609.609,0,0,1,.377-.637A75.815,75.815,0,0,1,62.532,69.84a.606.606,0,0,1,.629.292c6.428,11.1,9.282,15.645,25.42,43.97.064.142.081-.32-.366,5.223-.055.672-.014.789-.223.879a.25.25,0,0,1-.083.011l-.043,0a.358.358,0,0,1-.076-.031c.092-.148.236-.384,0,0C85.566,118.873,61.937,104.677,60.068,102.96Zm-10.3-28.332c.052.052.412.424.463.477C69.085,94.6,67.836,93.652,67.823,93.923c-.065.586-.743,1.122-3.868,4.467-.636.684-2.78,2.983-3.057,3.885,2.444,2.006,24.175,15.628,26.8,17.274.036-.5.167-2.78.315-5.224-.1.01-21.266-35.621-25.685-43.219A74.944,74.944,0,0,0,49.764,74.628Z" class="a"/><path d="M89.061,120.6a.32.32,0,0,1,.052.052l.021.032.015.034h0c.035.142-.124.651-.2,1.73-.364,3.506-.226,11.842-.226,21.023l-.226.26-.257-.23c-.036-.237-.286-2.329-.3-2.465a72.288,72.288,0,0,1-.138-15.918c.055-.383.223-1.772.281-1.876a18.931,18.931,0,0,1,.59-2.484v.012l0,.032.015.076c.114.156.1.206.031-.225l.345-.054Z" class="b"/><path d="M90.328,133.6a9.189,9.189,0,0,1,.206-2.844.611.611,0,0,1,1.089.554,14.662,14.662,0,0,0-.073,2.19A.615.615,0,1,1,90.328,133.6Z" class="c"/><path d="M55.3,200.315c-1.427,15.886-5.979,51.085-8.56,68.419-.7,4.709-.65,4.506-.91,4.809-.879,1.009-4.079.6-5.313.155-.605-.22-.823-.335-.92-.895-.719-4.789,3.833-61.365,3.988-70.083.021-1.254,0-1.119-.143-1.436.055-.142.116-.244.277-.269a.277.277,0,0,1,.081.006c.312.075.331.459.3,2.774-.269,15.306-3.77,64.161-3.316,68.706a7.747,7.747,0,0,0,4.065.281c.439-.28,9.094-64.735,9.97-72.516l.266-.22Zm-11.466,1.173h0l0,0Z" class="a"/><path d="M262.13,189.118c-.7,1.561,5.448,66.255,5.694,80.953a5.4,5.4,0,0,1-.19,2.111c-.472.692-3.038.923-4,.923a3.4,3.4,0,0,1-1.857-.428c-.486-.352-.439-.418-.889-3.406-2.737-18.01-7.433-55.079-8.8-70.02l.216-.269.266.22c1.5,13.466,8.37,62.637,9.926,72.491h0l0,0c.894.414,3.042.1,4.09-.253.76-1.083-6.084-81.847-4.852-82.561l.044-.015.047-.006C262.005,188.873,262.068,188.956,262.13,189.118Zm-.424.195a.233.233,0,0,0,.1.04l-.11-.049Z" class="a"/><path d="M196.482,272.834c.185-.185-.1-15.428.26-18.806l.269-.214c.259.325.216.22.2.443-.1,2.272.267,11.577.367,16.521.028,2.612.116,2.793-.532,3.052a16.837,16.837,0,0,1-3.818.269.578.578,0,0,1-.55-.44c-.031-.194-.012-.066,0-.507,0-1.1,0-.706,0-.862-1.151,0-17.956,4.228-21.84,4.228-.659-.041-1.078-.208-1.078-.925,0-5.262,9.008-9.493,13.912-11.457v-.155c.1,0-.037-10.086.29-10.347v0a.268.268,0,0,1,.147-.045l.039,0a.336.336,0,0,1,.074.027h0l.1.33,0,0a.258.258,0,0,0,.021-.061v-.009c0,5.012.32,10.5.095,10.839a56.565,56.565,0,0,0-9.055,4.912,13.93,13.93,0,0,0-3.73,3.645,4.274,4.274,0,0,0-.709,2.062c1.785,0,7.942-1.341,9.681-1.711,12.476-2.725,12.792-2.9,13.155-2.172a8.756,8.756,0,0,1,.067,1.5A18.051,18.051,0,0,0,196.482,272.834Zm-.018.263,0-.006v0Zm0-.009h0v0h0Zm-12.476-19.042c.308-.018.238.006.326-.1Z" class="a"/><path d="M226.222,244.444c2.06,2.288,1.934,1.844,1.482,2.778-1.777,3.47-4.181,9.631-3.923,13.576a4.657,4.657,0,0,0,.87,2.61,24.078,24.078,0,0,0,2.113-2.331c3.213-3.937,3.039-3.985,3.139-3.985,8.449-11.015,8.668-11.87,9.553-11.5a8.649,8.649,0,0,1,1.03,1.1,17.426,17.426,0,0,0,1.923-1.807c-.191-.223.475.534-1.695-2.047-1.1-1.285-9.38-10.923-10.286-12.292-.087-.139-.077-.042,0-.438.4.077.31.034.4.155.756,1.143,9.248,10.214,12.439,13.934.571.73.63,1.006-1.682,3.069-.846.725-.92.9-1.36.812-.263-.11-.1-.01-1.06-1.123-.353.3-3.811,4.977-8.3,10.879h0c-.707.92-2.3,2.953-2.905,3.68h0a30.307,30.307,0,0,1-2.375,2.656c-.486.417-.987.809-1.492.4a4.717,4.717,0,0,1-1.139-1.881c-1.311-3.689,1.216-10.311,2.912-13.784,1.234-2.583,1.229-2.18,1.05-2.389l0,0c-6.716-7.992-6.555-7.857-6.521-8.039v0a.271.271,0,0,1,.081-.13l.032-.024a.319.319,0,0,1,.074-.027l0,0,.289.187C220.888,238.368,220.14,237.638,226.222,244.444Zm16.344.656,0-.007,0,0Zm0-.009h0l0,0h0ZM220.7,238.76c.222-.214.185-.15.185-.287Z" class="a"/><path d="M96.465,229.75c.926,13.278,2.447,35.891,3.3,45.271h0l0,0a7.709,7.709,0,0,0,4.043.04c.853-.213.664-65.948,1.591-71.116.108-.569.507-.54.631-.141a.985.985,0,0,0-.188.649c-.511,6.052.211,60.3-.675,70.045-.057.606-.091,1.283-.508,1.527a8.118,8.118,0,0,1-3.17.506c-.119,0-.37-.012-.461-.013-.865-.059-2.041-.211-2.389-1-.475-1.166-3.929-53.31-4.374-73.476C95.019,201.224,94.428,200.364,96.465,229.75Zm9.156-25.765h0l-.007,0Z" class="a"/><path d="M212.013,199.991c-.411,18.616-3.81,72.766-4.507,73.7-.808,1.064-4.026.875-5.291.514-.618-.18-.844-.28-.978-.831-1.036-4.71-.281-68.083-.842-71.339-.163-.307-.163-.246-.124-.346.113-.3.487-.356.6.152.944,4.406.706,66.257,1.532,71.151a7.552,7.552,0,0,0,4.113-.018c.205-.234,4.394-59.067,5.016-73l.25-.237Zm-11.361,1.944h.005l0,0Z" class="a"/><path d="M108.292,260.577c.186-.2-3.535,7.271-3.11,7.647,1.31,1.176,16.768,13.515,21.07,14.218.373.061,1.353-2.023-.174-4.4-1.088-1.7-7.665-12.95-8.487-13.173" class="a"/><path d="M117.521,265.105l-.009-.006.009.006-.012-.009.009.006-.012-.006.012.006-.009-.006,0,0h.006l-.159-.3h0l.305-.159c.509.17,2.022,2.418,2.322,2.863,1.186,1.714,6.408,9.8,6.956,10.894a4.363,4.363,0,0,1,.013,4.271c-.315.36-.563.51-1.415.226-5.715-1.909-20.549-13.929-20.8-14.526-.237-.71.862-2.836,2.56-6.3.8-1.592.644-1.31.736-1.494v0a.238.238,0,0,0,.022-.049l0,.01,0-.013c0,.008,0,.043-.007.055l0,.052.051.107.01.006c0-.364-.029-.352.116-.4l.039-.009a.28.28,0,0,1,.083.006l.04.012.033.019a.318.318,0,0,1,.058.052v0a.234.234,0,0,1,.058.137v.043a.874.874,0,0,1-.046.156l0,0c-.231.619-2.483,5.592-2.835,7-.083.312-.288.055,1.537,1.478,3.657,2.856,12.66,9.606,16.842,11.7a10.219,10.219,0,0,0,2.05.855v0l.009-.015a3.467,3.467,0,0,0-.1-2.634c-.188-.4-6.324-11.177-8.447-14.007l-.009-.006-.015-.015-.006,0,.006.006ZM105.6,268.111V268.1l0-.009h0v.009l0,.009v0Zm2.679-7.3.123-.022a.343.343,0,0,0,.064-.042C108.066,260.748,108.1,260.722,108.276,260.816Z" class="a"/><path d="M132.658,270.419c.006-.275,2.181,7.784,2.748,7.784,1.761.01,21.513-1.018,25.2-3.346.319-.2-.33-2.411-3.05-3.176-1.938-.546-14.327-4.6-15.09-4.222" class="a"/><path d="M132.442,270.525c.09.1.017.06.178.127h.011l-.221-.249a.461.461,0,0,1,.01-.062l.013-.028a.615.615,0,0,1,.045-.068l.032-.029h0a.335.335,0,0,1,.072-.039l.037-.008a.339.339,0,0,1,.078,0l0,0a.25.25,0,0,1,.135.064c.141.16,1.809,5.637,2.555,7.163.128.272.113.219.165.323.084.118,19.888-1.164,24.489-3.237l.007-.006,0,0,0-.017c-.017-.041,0-.016-.021-.056l0-.017-.01-.02,0-.02a1.185,1.185,0,0,0-.055-.131,3.773,3.773,0,0,0-2.066-1.81c-.1-.04-14.608-4.912-15.314-4.723h0l-.011,0,.011,0h0l-.013,0,.013,0h-.006l0,0-.319-.121h0c.118-.308.084-.358.286-.364,1.056-.283,14.889,3.793,15.968,4.2,2.45,1.1,3.088,3.111,2.637,3.769a6.959,6.959,0,0,1-2.608,1.138c-4.976,1.413-16.449,2.23-22.16,2.351-1.249.025-1.3.147-1.773-.9-.853-2.083-2.042-7.071-2.131-7.171a.257.257,0,0,0-.016-.051l0,.009Zm3.185,7.306.006.007.009,0-.008-.01.008.01-.01-.012,0,0-.009,0Zm-2.963-7.189c.169-.042.121-.01.218-.132C132.918,270.4,132.938,270.4,132.664,270.642Z" class="a"/><path d="M151.5,53.285a1.54,1.54,0,0,1,1.262.935,3.347,3.347,0,0,1,.263.974c.268,2.53-1.017,11.834-1.464,13.194-.076.129-.112.194-.238.206l-.272-.209.208-.272-.049.013-.04.019c-.073.057-.025.022-.064.063v0l0-.007-.006.008.006-.008-.006.007.006-.011,0,.007A86.74,86.74,0,0,0,152.133,56.1a2.812,2.812,0,0,0-.415-1.659l0,0a.439.439,0,0,0-.217-.121h-.034l-.021,0-.037.013,0,0-.006,0,0,0-.012.005s-.018.009-.052.033a6.059,6.059,0,0,0-1.158,2.741c-.127.579-.23,1.668-.33,1.909a.576.576,0,0,1-1.078-.173c0-1.93.055-1.518.055-2.207h0c0-.392.07-1.17.11-1.649.084-.962.076-1.439.082-1.555a3.549,3.549,0,0,0-.275-1.8l-.018-.024,0-.008L148.7,51.6l0-.006-.006-.007,0-.006-.013-.011,0,0-.006-.005,0,0h0v0l-.006,0-.006-.007-.006,0-.016-.014c-.008,0-.018-.01-.027-.014l-.006,0c-.112-.056-.211,0-.312.057-.862.776-1.126,2.932-1.179,4.076a8.717,8.717,0,0,1-.144,1.65c0,.539.086.831-.29,1.112a.609.609,0,0,1-.757-.1.706.706,0,0,1-.181-.538,3.47,3.47,0,0,1,.01-.614,7.988,7.988,0,0,1,.03-1.564,15.479,15.479,0,0,0-.6-6.394v0a.375.375,0,0,1-.024-.036l0-.007-.019-.022,0-.007-.012-.012,0-.006L145.1,49.1l0,0-.006,0,0,0-.006,0-.009-.01-.007,0-.006-.005v0l-.009-.005h-.027a.8.8,0,0,0-.474.263,4.807,4.807,0,0,0-.434,2.172,16.864,16.864,0,0,0-.183,1.908c-.229,4.965-.021,5.949-.974,6.062h0c-.425.034-.633-.2-1.155-.283a7.256,7.256,0,0,0-1.354-.073,2.29,2.29,0,0,0-1.347.342l-.006,0,0,.005-.006.005-.006.008-.006.005-.019.024v0l-.009.011v0l0,0v0l-.006.008v.007l0,0v0l0,0v.008l0,.005v.015l0,.005v.053l0,.008v.018l0,.008v.01l.006.02v.01l.009.034.006.012,0,.013.006.012,0,.014.013.027c.028.133.18.351.66.73.331.242,1.883,1.187,1.729,1.1.187.159,1.1.234,1.191.893.1.757-.481,4.866-.345,5.534,0,.25.112.325-.021.5l-.031.027a.247.247,0,0,1-.147.051c-.192-.013-.152-.063-.183-.266l-.064.036,0,.03,0-.006,0,.007c-.243-1,.082-3.479.082-5.794-.27-.135-.466-.165-.788-.306-1.347-.739-3.182-1.567-3.009-2.967a1.6,1.6,0,0,1,1.344-1.1,6.3,6.3,0,0,1,3.147.08c.145-1.219.058-5.528.3-6.863a6,6,0,0,1,.587-2.788,1.723,1.723,0,0,1,2.019-.716c.945.473,1.129,1.983,1.332,3.379a1.768,1.768,0,0,1,2.053-1.016c1.244.443,1.283,2.1,1.25,3.407-.014.531-.091.336.293-.031A1.368,1.368,0,0,1,151.5,53.285Zm-9.556,9.321v0Zm0,0h0V62.6l0-.008Zm.941-4.177h0Zm0,0h0Zm-.006,0h0Zm-.012,0h0Z" class="a"/><path d="M215.237,44.652c-.016-.022,1.634-1.949,2.273-2.056a6.087,6.087,0,0,1,2.04-.06c2.069.414,2.9,3.968,2.463,5.7a4.349,4.349,0,0,1-2.823,2.522c-.214.042-1.68.24-1.68.24s-2.832,2.877.528,7.28c.287.377-5.566.129-6.537,3.805-1.158,4.376,5.5,3.539,5.526,3.564.055.054-3.574,7.475-1.418,9.61,2.8,2.773,7.259-2.69,7.3-2.645.067.067,1.243,3.178,1.488,3.67,1.353,2.7,3.907,3.289,7.038,2.454,3.376-.9,2.4-6.184,2.4-6.184s3.825,4.381,8.753,3.133a2.359,2.359,0,0,0,1.576-2.533c0-1.476-2.933-5.584-2.7-5.584.388,0,9.131,1.142,10.866-2.041,1.136-2.082.981-4.433-1.2-5.643a50.894,50.894,0,0,0-5.523-1.982,18.892,18.892,0,0,0,3.364-1.681c2.12-2.127,2.208-3.753,1.02-5.883-.694-1.241-3.134-.961-4.384-.961-.241,0-1.417.382-1.561.24-.064-.066.865-1.485,1.051-1.92a3.983,3.983,0,0,0-.031-3.183,5.813,5.813,0,0,0-3.6-2.762c-.5-.072-2.188.11-2.16.06,1.527-3.01-1.567-8.467-5.884-6.965a23.621,23.621,0,0,0,2.041-3.062,5.921,5.921,0,0,0-1.5-6.183c-1.812-1.812-5.35-1.946-7.565-.961-.6.267-1.793,1.381-2.4,1.381a13.507,13.507,0,0,0,1.262-3.242,5.408,5.408,0,0,0-3.422-4.743c-4.169-1.853-8.626,1.948-11.948,4.682a2.248,2.248,0,0,0-.962-2.641c-1.766-1.349-5.792-2.728-7.986-2.1a2.412,2.412,0,0,0-1.68,3.3,12.262,12.262,0,0,0,1.922,2.041c-1-.853-1.87-1.727-2.343-2.041-3.153-2.1-6.431-2.86-10.024-1.2-1.353.623-3.9,2.354-3.605,4.142.153.906,3.37,1.677,3.184,1.742-.312.107-2.148.125-2.643.18-2.279.253-7.182,2.17-6.663,5.283a3.572,3.572,0,0,0,2.942,2.522c.126.014,1.68.138,1.68-.12,0-.034-.858.513-.9.54a7.356,7.356,0,0,0-1.319,1.261,5.782,5.782,0,0,0-.963,5.644c.547,1.635,2.288,3.12,4.085,2.521a5.1,5.1,0,0,0,1.921-1.441c.037-.037.831-.739.9-.6.095.191-.387.955-.482,1.141a1.5,1.5,0,0,0,1.142,2.281,3.266,3.266,0,0,0,2.221-.84,11.12,11.12,0,0,0,3.782-5.464c.3-.823.737-3.721.779-3.542.281,1.123.792,3.132,1.623,3.962,1.613,1.613,4.393,2.714,6.665,1.862a8.956,8.956,0,0,0,2.521-1.441c.183-.154.718-.841.959-.841a10.124,10.124,0,0,0,2.523,4.323C211.375,45.124,215.237,44.652,215.237,44.652Z" class="a"/><path d="M240.3,40.29a4.156,4.156,0,0,1-.123.882,4.128,4.128,0,0,1,2.933.571,6.4,6.4,0,0,1,2.637,2.827,4.613,4.613,0,0,1,.113,2.75,5.318,5.318,0,0,1-.715,1.533h0c.114-.026.214-.048.33-.064s1.508-.052,2.157-.022c1.4.075,2.4.362,2.993,1.493a4.469,4.469,0,0,1-.048,4.955,9.078,9.078,0,0,1-1.281,1.516,11.405,11.405,0,0,1-1.991,1.092c1.022.34,2.423.8,3.479,1.25a4.744,4.744,0,0,1,1.949,1.389,4.816,4.816,0,0,1,0,5.529c-1.82,2.6-7.112,2.488-10.286,2.239.666,1.125,2.2,3.54,2.276,4.821,0,2.692-1.474,3.484-4.158,3.413a9.271,9.271,0,0,1-4.405-1.358c-1.787-1.079-1.659-1.345-1.659-1.079a8.672,8.672,0,0,1-.25,2.3,3.956,3.956,0,0,1-2,2.669,8.808,8.808,0,0,1-4.124.561A5.087,5.087,0,0,1,224.56,77.5a16.365,16.365,0,0,1-1.814-4.021A13.053,13.053,0,0,1,219.456,76a4.062,4.062,0,0,1-2.735.419c-3.887-1.028-1.882-6.569-.336-10.312-3.072.113-5.868-.751-5.34-3.8.7-3.024,3.455-3.694,6.437-4.191a6.4,6.4,0,0,1-1.173-5.627,4.516,4.516,0,0,1,1.008-1.75h0c.158-.1,1.648-.228,1.983-.333a4.422,4.422,0,0,0,2.288-1.9c.657-1.2.033-4.581-1.558-5.509a3.909,3.909,0,0,0-2.362-.168.57.57,0,0,0-.244.067,8.181,8.181,0,0,0-1.61,1.452h0c-.382.41-.311.374-.37.427h0l0,0a.48.48,0,0,0,.021-.048l0-.019c0,.231-.474.213-.865.229-4.569.164-6.793-1.72-8.117-5.631v0c-.02.015-.122.119-.14.137a5.724,5.724,0,0,1-.587.589,6.518,6.518,0,0,1-8.092.609A5.4,5.4,0,0,1,194.93,36.9a13.264,13.264,0,0,1-1.814,4.949v0a9.5,9.5,0,0,1-3.321,3.314,2.365,2.365,0,0,1-2.523.159,1.872,1.872,0,0,1-.666-.608l-.019-.024a2.424,2.424,0,0,1-.119-.223,1.783,1.783,0,0,1-.156-.668c0-.968.441-.87-.543-.136-1.877,1.539-5.012.555-5.866-2.867a6.232,6.232,0,0,1,2.032-6.348c-2.264-.289-4.235-2.64-3.043-4.966,1.037-2,3.858-3.282,6.043-3.748.967-.2,1.106-.118,1-.148a2.912,2.912,0,0,1-1.082-.8c-.531-.77-.11-1.9.465-2.709a8.785,8.785,0,0,1,2.734-2.244,9.613,9.613,0,0,1,8.615-.386c2.062.88,1.758,1.181,1.8.632a2.975,2.975,0,0,1,1.228-2.14c2.152-1.507,6.1-.271,8.417.935a4.161,4.161,0,0,1,2.416,2.549c2.182-1.749,4.4-3.536,7.176-4.235a6.618,6.618,0,0,1,6.691,1.974,5.788,5.788,0,0,1,1.121,1.8,4.919,4.919,0,0,1,.33,2.026,4.9,4.9,0,0,1-.382,1.292c-.246.636-.213.187.852-.261a8.876,8.876,0,0,1,4.83-.434,5.9,5.9,0,0,1,3.95,2.426,6.467,6.467,0,0,1,1.03,5.712,9.312,9.312,0,0,1-1.32,2.269C237.993,33.935,240.494,37.276,240.3,40.29ZM188.53,26.5c-1.278.324-2.982-.325-6.29,1.328a6.318,6.318,0,0,0-2.077,1.594,2.285,2.285,0,0,0-.468,2.28,3.276,3.276,0,0,0,2.383,1.751,7.918,7.918,0,0,0,1.228.028.611.611,0,0,1,.556-.12h0a.452.452,0,0,1,.193.119h0a.513.513,0,0,1,.131.24h0c.133.735-.69.565-1.576,1.437a8.746,8.746,0,0,0-1.179,1.347,4.828,4.828,0,0,0-.559,1.23,5.7,5.7,0,0,0,.314,3.931,3.592,3.592,0,0,0,1.662,1.617c2.332,1.047,3.465-2.039,4.589-1.971.293.039.5.276.406.707-.138.612-.69,1.079-.69,1.752l0,.016v.032l0,.016v.015l0,.016v.015c.007.035.014.073.021.1l.006.014.006.028.006.015,0,.013.007.014,0,.014.042.092.01.013.012.026.009.012.006.013.009.012.006.013c.86,1.149,2.263.192,3.364-.724a9.043,9.043,0,0,0,1.775-2.1v0c1.909-3.166,1.586-4.647,2.047-6.155a.377.377,0,0,1,.507-.289h0a.314.314,0,0,1,.085.049l.04.033h0c.123.146.067.079.309,1.01.12.432.242.862.372,1.224a4.009,4.009,0,0,0,1.384,2.166,7.39,7.39,0,0,0,3.122,1.536,5.609,5.609,0,0,0,4.69-1.156c.876-.6,1.212-1.36,1.713-1.259.328.11.222.587.914,2.039a6.989,6.989,0,0,0,1.958,2.566,8.452,8.452,0,0,0,5.414,1.234c.14-.011.019.062.439-.409h0a6.736,6.736,0,0,1,1.95-1.664,6.491,6.491,0,0,1,2.144-.1c2.075.394,2.987,3.291,2.86,5.424a2.759,2.759,0,0,1-.382,1.294A4.73,4.73,0,0,1,219.1,51.1c-.328.053-.99.146-1.319.193h0l-.113.015-.007,0a4.586,4.586,0,0,0-.672,4.342c.589,1.984,1.9,2.513,1.219,3-.662.419-5.478.285-6.36,3.632a2.029,2.029,0,0,0,1.567,2.69,10.568,10.568,0,0,0,3.663.262.43.43,0,0,1,.327.238h0c.082.214.063.233-.2.861-.814,1.9-2.436,6.19-1.616,8.1a1.9,1.9,0,0,0,.853.9c1.246.706,2.81-.178,3.962-1.039,2.126-1.67,2.048-2.317,2.673-2.13h0a.435.435,0,0,1,.143.085c.243.235,1.277,3.115,1.623,3.818a5.489,5.489,0,0,0,.516.837c1.5,1.876,3.593,1.947,5.939,1.335,2.12-.6,2.346-3.422,2.007-5.572a.542.542,0,0,1,.935-.466,9.191,9.191,0,0,0,7.161,3.131,3.186,3.186,0,0,0,1.637-.477c.038-.042.077-.069.125-.128a2.294,2.294,0,0,0,.434-1.47,6.177,6.177,0,0,0-.852-2.244c-1.45-2.718-2.03-3.028-1.821-3.664.376-.665.622-.149,4.332-.149a12.63,12.63,0,0,0,5.557-1,2.718,2.718,0,0,0,1.347-1.708c.71-2.085-.012-3.5-1.613-4.233-.845-.38-1.936-.749-2.814-1.046-2.568-.849-2.4-.7-2.615-.961a.592.592,0,0,1,.028-.723c.149-.154.138-.132.675-.353a13.989,13.989,0,0,0,2.7-1.348l.021-.018a5.089,5.089,0,0,0,1.61-2.863,3.349,3.349,0,0,0-.186-1.215,5.99,5.99,0,0,0-.575-1.2c-.474-.742-2.939-.554-3.724-.547-.16,0-.868.215-1.316.263-.777.078-1.045-.478-.856-.909.194-.5.846-1.337,1.173-2.235a4.055,4.055,0,0,0,.122-.657,2.858,2.858,0,0,0-.488-2.025,5.87,5.87,0,0,0-2.212-1.841c-.887-.373-.888-.21-2.673-.147a.632.632,0,0,1-.7-.433c0-.1-.056-.078-.009-.329a3.938,3.938,0,0,0,.345-1.116,5.267,5.267,0,0,0-1.377-4.021,3.665,3.665,0,0,0-3.669-1.221c-.475.119-.612.264-.981.011a.6.6,0,0,1-.153-.751,27.158,27.158,0,0,0,2-2.974,4.46,4.46,0,0,0,.266-1.073,5.021,5.021,0,0,0-.116-1.847c-.891-3.294-3.79-4.522-7.094-3.879-1.632.344-1.724.762-2.887,1.46a2.469,2.469,0,0,1-.907.367.62.62,0,0,1-.745-.745,17.128,17.128,0,0,0,1.243-3.06l0-.011a4.73,4.73,0,0,0-2.7-4.04c-3.884-2-7.967,1.4-11.312,4.12-.362.3-.508.5-.926.409a.6.6,0,0,1-.376-.8,1.605,1.605,0,0,0-.446-1.655c-1.564-1.485-6.643-3.319-8.563-1.892a1.726,1.726,0,0,0-.522,2.1l0,0v0c.077.1-.042.013.495.612,1.276,1.325,1.359,1.152,1.463,1.564a.584.584,0,0,1-.369.641.623.623,0,0,1-.688-.183c-1.517-1.312-2.032-2.061-4.124-3.02a8.874,8.874,0,0,0-4.592-.881c-3.113.3-5.645,2.331-6.122,3.571a1.318,1.318,0,0,0-.119.674l0,.014v.014l0,.015v.014l0,.014v.014h0c.282.479,2.439,1.152,2.805,1.3A.562.562,0,0,1,188.53,26.5Zm26.951,18.136c-.162.012-.456.034,0,0v.025Z" class="a"/><path d="M197.671,77.518c-3.361-.977-3.231-2.833-4.467-3.792-.119-.093-3.22,3.844-7.567.347-1.365-1.1-1.375-2.877-.987-4.494a17.319,17.319,0,0,0,.737-1.631s-.611.324-.642.337a6.239,6.239,0,0,1-1.747.389c-1.778.222-3.6.109-4.253-1.863-1.142-3.428,2.056-5.8,4.757-7.093,1.591-.76,1.409-1.053,3.589-1.39,0,0-1.173-.157-1.747-.294A5.571,5.571,0,0,1,182.4,56.35c-.935-1.406.345-3.108,1.286-4.094a7.849,7.849,0,0,1,5.991-2.129c1.993,5.871,4.933,13.866,10.533,16.524,1.5.712,4.137,1.123,4.323,1.311.434.431.7,5.07.394,5.374C203.921,74.339,199.122,76.79,197.671,77.518Z" class="a"/><path d="M189.37,49.517c.869,0,.769.14,1.149,1.216,1.39,4.11,3.574,9.739,6.55,12.88,2.751,3.057,5.2,3.165,7.381,3.833a.754.754,0,0,1,.574.5,16.375,16.375,0,0,1,.321,5.33c-.061.292-.226.4-.581.667a44.713,44.713,0,0,1-4.839,2.733c-1.645.832-2.359,1.228-2.312,1.041l-.009.039c-3.217-.867-3.274-2.421-4.372-3.559-.2-.209-3.16,3.844-7.876.227a3.8,3.8,0,0,1-1.408-2.987,6.906,6.906,0,0,1,.29-2.206c.2-.455.376-.152-1.695.041-1.932.16-3.477-.234-4.244-2.021-1.216-3.322.839-5.77,3.883-7.513.78-.44,1.119-.565,1.589-.836.524-.294.561-.318.821-.456-3.854-1.306-4.018-3.9-1.234-6.73A8.369,8.369,0,0,1,189.37,49.517Zm-3.812,17.939c.838.376-.065,1.41-.373,2.139-.047.094-.03.078-.046.1,0,.1-.656,2.123.266,3.461a5.687,5.687,0,0,0,2.691,1.786,4.551,4.551,0,0,0,4.164-.9c.715-.535.705-.675,1-.649.5.153,1.192,1.442,1.668,2.118a3.325,3.325,0,0,0,1.241,1.093,7.854,7.854,0,0,0,1.478.649c1.343-.694,5.782-3.051,6.969-4.138a9.663,9.663,0,0,0-.031-2.509c-.026-.252-.193-2.252-.44-2.326-2.585-.676-6.16-.809-9.959-6.556a50.029,50.029,0,0,1-4.952-11,8.013,8.013,0,0,0-3.69.873,6.158,6.158,0,0,0-2.108,1.877,2.691,2.691,0,0,0-.706,2.188,1.36,1.36,0,0,0,.257.463,5.423,5.423,0,0,0,2.541,1.329c1.657.37,1.818.13,2.108.62a.6.6,0,0,1-.18.729c-.2.126-.2.1-.556.164a4.749,4.749,0,0,0-1.967.649c-2.159,1.161-5.246,2.487-5.8,5.195a3.806,3.806,0,0,0,.263,2.11c.7,1.519,2.5,1.376,4.13,1.136a3.727,3.727,0,0,0,1.519-.523A.572.572,0,0,1,185.558,67.456Zm18.641.8h0l0-.007Zm0,0v0l0,0Zm0,0h0l-.006-.01Zm-19.326-.328v0Z" class="a"/><path d="M219.01,41.934a2.829,2.829,0,0,1,1.8.608,6.335,6.335,0,0,1,1.616,6.231,5.14,5.14,0,0,1-2.991,2.521c-.276.065-.884.146-1.613.247h-.012a4.151,4.151,0,0,0-.8,3.069,6.756,6.756,0,0,0,1.527,3.356.655.655,0,0,1-.467.994c-.826.227-3.962.417-5.371,2.089-.744.892-1.092,2.412-.217,3.2a5.013,5.013,0,0,0,2.915.836c1.578.064,1.846-.259,2.178.3a.631.631,0,0,1,0,.53,23.472,23.472,0,0,0-2.035,6.838,3.312,3.312,0,0,0,.33,1.866,2.045,2.045,0,0,0,.727.616c1.1.528,2.407-.121,3.413-.825,1.88-1.334,2.21-2.238,2.78-2.4h0a.6.6,0,0,1,.333.027h0c.338.161.363.342.58.877.941,2.413,1.236,3.407,2.05,4.282.633.672.875.543.978,1.023.025.423-.171.54-.746.971a29.087,29.087,0,0,1-4.332,2.552c-5.268,2.492-11.076,3.48-16.616,1.532-2.794-.994-4.515-2.323-7.145-4.362-.128-.1-.916-.705-1.045-.826a.547.547,0,0,1-.043-.681c.227-.276,5.749-2.81,7.7-4.373a16.684,16.684,0,0,0-.068-3.328,6.489,6.489,0,0,0-.238-1.395c-.51-.161-1.758-.416-3.018-.82-6.85-2.244-10.017-11.812-12.272-18.791a16.3,16.3,0,0,1-.8-3.218c-.037-.254-.06-.292,0-.414l.024-.033a.454.454,0,0,1,.07-.055l.034-.014a.287.287,0,0,1,.082-.013v0a1.416,1.416,0,0,0,.288-.026h0a4.133,4.133,0,0,0,1.457-.737,8.74,8.74,0,0,0,2.254-2.365,14.165,14.165,0,0,0,1.558-3.321c.2-.7.555-2.954.66-3.284a.361.361,0,0,1,.2-.214h0a.272.272,0,0,1,.153-.029h0A.386.386,0,0,1,195,35h0c.479.229.589,3,1.912,4.162a7.364,7.364,0,0,0,3.37,1.745,4.748,4.748,0,0,0,2.966-.253c2.71-1.135,2.719-2.5,3.568-2.206.311.153.244.283.565,1.127a9.018,9.018,0,0,0,1.4,2.525,4.894,4.894,0,0,0,2.367,1.638,9.878,9.878,0,0,0,3.568.429c.33-.019.18.044.526-.336C216.8,42.107,217.229,41.9,219.01,41.934Zm-24.135-4.992a12.129,12.129,0,0,1-3.128,6.505,7.037,7.037,0,0,1-3.055,1.973h0c-.122.02-.1-.019-.076.16a70.736,70.736,0,0,0,4.093,11.481c1.516,3.075,3.274,6.4,6.385,8.46,1.706,1.177,3.3,1.368,5.221,1.866.492.135.624.217.8.717.3,1.159.645,4.53.29,5.406-.474.893-6.354,3.933-7.127,4.312,1.087.829,3,2.287,4.2,3,7.275,4.273,16.438,2.035,22.677-2.51a5.727,5.727,0,0,1-.672-.743c-.731-1.015-.732-1.266-1.775-3.865-1.859,1.819-4.51,3.837-6.779,2.557a3,3,0,0,1-1.573-2.477,12.592,12.592,0,0,1,.785-4.885c.279-.819.591-1.7.971-2.6-4.752.066-6.07-2.245-5.01-4.894.915-2.29,3.566-3.061,5.988-3.456a6.642,6.642,0,0,1-1.121-5.156,4.794,4.794,0,0,1,1.2-2.257c.308-.191,1.7-.25,2.1-.389a3.872,3.872,0,0,0,1.164-.68,3.789,3.789,0,0,0,.834-.917c.625-1.065.18-3.049-.37-4.179a2.248,2.248,0,0,0-1.542-1.322,6.686,6.686,0,0,0-1.754.076,4.931,4.931,0,0,0-1.09.9c-1.031,1.01-.806,1.107-1.317,1.155a12.168,12.168,0,0,1-2.331-.039c-3.683-.442-5.169-2.191-6.446-5.54a8.237,8.237,0,0,1-3.455,2.07,6.379,6.379,0,0,1-4.24-.418,8,8,0,0,1-2.6-1.814,6.166,6.166,0,0,1-1-1.968C194.85,36.689,194.919,36.721,194.875,36.942Zm9.617,36.15v0h0Zm-.207-4.741-.006,0h0Zm0,0-.006,0h0Zm11.395-23.42.018-.028,0-.009Zm.045-.091a.145.145,0,0,1,.01-.024Z" class="a"/><path d="M196.974,48.2l0,.008v-.015l0,.011,0-.011,0,.013v-.01l.006.015,0-.009.006.018V48.21l.01.021,0-.007.018.024,0-.006.04-.345.345.041a.769.769,0,0,1,.116.385,10.085,10.085,0,0,1-.269,4.038c-.361,1.871-.209,1.308-.339,1.861a8.188,8.188,0,0,0-.2.807,4.077,4.077,0,0,0,1.286.418,5.115,5.115,0,0,0,2.008.107l-.016,0h.009l-.042.021-.095.111.012.066.168-.21a.234.234,0,0,1,.184.038l.03.025h0l.028.031a.279.279,0,0,1,.048.16l-.006.041-.015.04h0c-.07.151-.242.182-.678.327a3.613,3.613,0,0,1-1.35.217,4.393,4.393,0,0,1-1.953-.262c-1.17-.533-.821-1.354-.552-2.428,0-.8.924-3.522,1.02-4.6.147-.564.153-.813.183-.913V48.2Zm2.936,7.765.137.065.04,0h0l.018,0h-.012C199.84,55.83,199.886,55.841,199.91,55.963Zm-3.272-1,0,0v0l0,0,0,0-.015-.02Z" class="a"/><path d="M204.447,57.564a2.284,2.284,0,0,1-.193,1.254h0a3.109,3.109,0,0,1-.812.991,3.408,3.408,0,0,1-2.185.895c-.1.009-.027.019-.379-.129.166-.4.02-.215.611-.747.523-.465.958-.732,1.415-1.177.174-.169.434-.439.437-.441h0c.034-.031.086-.081.122-.117l0-.005a2.794,2.794,0,0,0,.5-.6l.281-.2Z" class="a"/><path d="M202.356,50.6a.612.612,0,0,1-.6-.526c-.086-.6-.567-1.79-.105-2.335a.612.612,0,0,1,1.021.651c0,.334.256,1.231.294,1.513A.611.611,0,0,1,202.356,50.6Zm.224-2.07h0Z" class="d"/><path d="M192.526,51.237a.612.612,0,0,1-.6-.524c-.085-.587-.357-.99-.228-1.587a.637.637,0,0,1,1.01-.671c.4.313.191.8.171,1,.066.348.192.634.256,1.083A.61.61,0,0,1,192.526,51.237Z" class="d"/><path d="M191.974,44.1a1.825,1.825,0,0,1,1.359.5c.208.206.17.156.248.541l-.338.064c-.26-.016-.571.106-1.006.112a8.875,8.875,0,0,1-1.382,0c-.286-.029-.148.073-.528-.079h.009l-.02-.009.013,0-.013,0,.018,0h-.011l.019-.007h-.008l.019-.009h0l.018-.009h0l.018-.011-.329-.015-.011-.009-.015-.016a.253.253,0,0,1-.062-.213c.065-.285.343-.241.524-.408l-.011,0,0-.006.006-.007-.02.005.011-.008-.024.007a1.551,1.551,0,0,1,.676-.322h0A3.684,3.684,0,0,1,191.974,44.1Zm-1.559.729-.016.327.02-.018h0l.024-.029h0l.022-.037,0,0,.016-.043,0,0,.008-.047,0,0V44.95l-.006-.039,0,0-.011-.033v0l-.011-.026v0l-.013-.02v0l-.011-.016,0,0h0l-.011-.012Z" class="a"/><path d="M201.979,44.157a2.833,2.833,0,0,1,2.341,1.006l0,.007.072.337c-.5.1-.151.064-.82.011-.2-.013-.456-.01-.644-.037-1.739-.254-1.645-.058-2.528-.227h-.021l.01,0h-.034l.009,0h-.015l.006,0h-.013l.006,0-.01,0,.008-.005-.01,0L200,45.18c.073-.43-.03-.343.576-.668A2.288,2.288,0,0,1,201.979,44.157Z" class="a"/><path d="M190.858,54.046a3.464,3.464,0,0,0-.525.278l.009-.007-.012.01.012-.008-.006,0,.009-.008,0,0,.006-.006A6.571,6.571,0,0,0,189.376,56a5.406,5.406,0,0,0-.366,2.028,4.243,4.243,0,0,0,.657,2.3,4.189,4.189,0,0,0,1.769,1.282,6.783,6.783,0,0,0,3.543.479l-.006,0,.018-.008-.006,0,.016-.007-.006.005.012-.007-.006.006.009-.006-.009.007.009-.007-.009.008.009-.006-.009.009.009-.007-.009.01.006-.007-.009.011.006-.007-.006.012.006-.007L195,62.1l.006-.008-.01.015L195,62.1l-.01.017.007-.008-.007.017,0-.008-.006.018,0-.008,0,.019,0-.009,0,.019h0l0-.008v.019l.217-.267h0c.276.225.272.187.272.288l0,0c0,.227-.243.386-.513.482a6.518,6.518,0,0,1-3.577.113,5.042,5.042,0,0,1-2.57-1.58h0a4.232,4.232,0,0,1-.272-.373,5.683,5.683,0,0,1-.549-4.073v-.007A4.854,4.854,0,0,1,188.7,55.2a5.712,5.712,0,0,1,1.2-1.346,2.473,2.473,0,0,1,.935-.3c.163.023.17.111.189.111l.019.033h0l.015.039a.291.291,0,0,1,.006.083l-.006.041-.015.039h0l-.318.122.006.005.07.016h.04l-.006,0,.021,0-.009,0,.012,0h0Zm-.253-.144c.154.149.146.191,0-.2Z" class="b"/><path d="M219.715,48.66l.052.016.046.026.04.033a.286.286,0,0,1,.076.2l-.183.207h0a4.707,4.707,0,0,0-.816,3.108,3.559,3.559,0,0,0,.278,1.3c.823,1.868,2.416,3.464,4.433,3.321,4.736-.416,4.05-9.112-.4-9.321-.592-.017-.331.1-.721-.2l.211-.273c3.34-.627,5.628,2.973,5.3,6.288a7.19,7.19,0,0,1-.269,1.4,4.95,4.95,0,0,1-1.173,2,4.476,4.476,0,0,1-3.211,1.318,5.779,5.779,0,0,1-5.111-4.2l0,0a4.175,4.175,0,0,1-.211-1.538,7.224,7.224,0,0,1,.587-2.454,3.816,3.816,0,0,1,.434-.724C219.408,48.77,219.487,48.633,219.715,48.66Zm-.275.306,0-.007,0,.018v0l0,.021v-.005l.01.025a.215.215,0,0,0,.1.111l.046.018a.292.292,0,0,0,.061.01l-.217-.194,0-.007Z" class="b"/><path d="M197.659,92.644a18.673,18.673,0,0,1-1.161,2.533c-.327.721-.273.587-1.381,3.468a36.236,36.236,0,0,0-1.519,4.631c-.141.594-.913,4.351-1,5.61a5.537,5.537,0,0,0,.062,1.321c.091.4.05,1.328.155,1.667v.008l0-.008.006.016,0-.006c.069.2.513.691.116.991l-.018.01-.339-.066.067-.341.009-.007-.015.009.009-.008-.012.012.006-.008-.012.013,0-.005,0,0-.012.014.006-.008-.012.016,0-.008-.009.017,0-.008-.01.018,0-.009-.01.019,0-.009-.006.018,0-.008-.006.018,0-.009,0,.018v-.009l0,.017v.016l0-.01,0,.013,0-.011,0,.012,0-.011,0,.011,0-.011v0l0-.007v.008l-.006-.015,0,.007-.006-.009,0-.008,0,0c-.006-.008-.013-.021-.028-.04-.032-.049-.144-.192-.171-.231a6.189,6.189,0,0,1-.476-1.764v-.008c-.539-2.026-.217-3.4.146-5.5a22.867,22.867,0,0,1,.822-3.646,29.6,29.6,0,0,1,4.305-8.745l0,.006.006-.017v.008l0-.01h0l0,.009,0-.01,0,.01,0-.009v.012l.25-.234h0Z" class="a"/><path d="M240.33,87.7a139.1,139.1,0,0,0,2.826,15.772c.96,4.186,1.127,3.455.822,4.065l-.309-.155a41.791,41.791,0,0,1-1.992-5.279c-.392-1.506-1.186-5.073-1.438-6.678a29.906,29.906,0,0,1-.431-7.161c.056-.687-.041-.485.278-.809Z" class="a"/><path d="M211.253,106.906a.967.967,0,0,1-.525.387c-1.384.23-2.729-2.508-3.324-3.8l0,0c-4.15-9.451-7.61-25.537-6.636-27.712.061-.1-.019-.061.385-.149l.074.339-.006.009,0,.01,0-.007-.013.021,0-.006,0,.012c-.012.02,0,.006-.012.027v0c-.953,1.857,5.992,27.621,9.22,29.958,1.536-2.173,13.868-25.789,14.4-28.431v-.01l0-.01v-.019l0-.011v-.021l.223-.26.26.224C225.629,79.054,214.091,103.09,211.253,106.906Z" class="a"/><path d="M216.366,114.424a6.589,6.589,0,0,1-5.948,3.126,4.258,4.258,0,0,1-2.429-.829,9.458,9.458,0,0,1-1.552-1.3,6.041,6.041,0,0,1,.715-8.047c1.84-1.575,6.132-1.793,8.539.433h0a4.789,4.789,0,0,1,1.393,2.707A6.015,6.015,0,0,1,216.366,114.424Zm-7.445-6.736h0c-2.864,1.145-3.224,5.544-1.249,7.266a7.975,7.975,0,0,0,1.7,1.2,4.868,4.868,0,0,0,2.282.233h0a5.45,5.45,0,0,0,4.992-4.926h0a4.35,4.35,0,0,0-.684-2.138,3.932,3.932,0,0,0-.813-.909h0A6.792,6.792,0,0,0,208.921,107.688Z" class="a"/><path d="M184.125,263.862l.04.006-.031.122c.048-.2-.073-.123.672.015a33.135,33.135,0,0,0,9.764.382c2.14-.268,2.377-.7,2.786-.29.156.228.1-.006.2,3.568.029,1.411.124,4.821.024,5.624-.084.375-.282.492-.678.611a17.115,17.115,0,0,1-3.358.214c-.363,0-.506.017-.742-.2-.207-.282-.131-.223-.131-1.619-.107,0-.852.15-.963.171-10.409,2.168-20.229,4.671-21.632,3.828l-.027-.024c-.314-.252-.257-.564-.257-.959.245-3.187,3.506-5.586,6.159-7.256a46.812,46.812,0,0,1,7.912-3.8c0-.158-.015-.3.138-.373l.009-.006.04-.012A.261.261,0,0,1,184.125,263.862Zm.226.614a.6.6,0,0,1-.027.082l-.025.037a.305.305,0,0,1-.064.055l-.04.018h0a1.623,1.623,0,0,1-.156.064c-3.973,1.7-10.025,4.819-12.384,8.45a4.671,4.671,0,0,0-.73,2.059c-.015.144-.03.107.152.107,4.772-.531,7.815-1.422,19.766-3.938,3.2-.592,3.015-.625,3.015,1.528a13.52,13.52,0,0,0,2.606-.122c0-.2.054-.522.012-7.794a30.087,30.087,0,0,1-10.7-.275c-1.394-.269-1.3-.32-1.418-.32C184.354,264.436,184.352,264.466,184.351,264.476Zm12.092,8.608v0h0Z" class="a"/><path d="M237.384,237.688c.225.06-.107-.314,4.343,4.674.086.1,1.233,1.4,1.6,1.871.574.737.5,1.043-1.734,3.041-.763.654-.987.974-1.461.774-.193-.115-.04,0-.97-1.084-.289.248-3.784,4.908-3.861,5.01-1.467,1.958-7.9,10.611-9.727,12.179a2.137,2.137,0,0,1-.86.541c-.469.1-.718-.222-1-.61-2.933-4,1.031-12.939,3.431-17.3.133-.247.126-.137-.022-.34a.237.237,0,0,1,.1-.343l0,0a30.422,30.422,0,0,0,9.573-8.059C236.969,237.769,237.074,237.664,237.384,237.688Zm-3.006,4.276a34.292,34.292,0,0,1-6.644,4.435l0,0c.374.437-1.415,2.33-3.146,8.293a19.439,19.439,0,0,0-.886,5.561,5.144,5.144,0,0,0,.912,3.146c.367.428,8.6-10.748,12.8-16.185,1.829-2.3,1.766-2.071,3.077-.542a11.749,11.749,0,0,0,1.9-1.79c-.086-.1-.289-.419-5.065-5.923A20.847,20.847,0,0,1,234.378,241.964Zm8.164,3.14,0,0h0Z" class="a"/><path d="M274.283,101.745c4.438,2.907,5.672,6.328,6.706,11.36a71.318,71.318,0,0,1,1.188,16.017c-.2,7.187-1.275,17.91-1.378,18.108a.447.447,0,0,1-.516.179c-.56-.244-1.436-2.99-7.109-4.946-2.106-.719-7.362-2.012-7.5-2.12a.481.481,0,0,1-.052-.067l-.015-.04a.467.467,0,0,1-.009-.083l.006-.042a.248.248,0,0,1,.092-.138c1.029-.626,6.24-3.132,8.633-5.35a4.774,4.774,0,0,0,1.323-1.657c1.133-2.742.753-6.457.36-9.61-.261-2.107-1.03-6.717-1.6-8.936a32,32,0,0,0-1.86-5c-2.667-5.74-3.451-6.432-3.119-7.066.281-.383.4-.222,1.536-.329C273.832,101.759,273.236,101.059,274.283,101.745Zm-3.437,1.5c.24.67,1.592,3,3.162,6.618a30.617,30.617,0,0,1,2.313,8.471,72.206,72.206,0,0,1,.959,8.185c.271,6.81-1.273,7.96-4.207,9.974a62.939,62.939,0,0,1-6.5,3.6c1.935.451,5.851,1.366,7.714,2.027a14.112,14.112,0,0,1,5.78,3.679c.7-10.13,1.958-23.082-.437-33.217a24.614,24.614,0,0,0-1.692-5.234,12.913,12.913,0,0,0-4.363-4.623A11.741,11.741,0,0,1,270.846,103.241Z" class="a"/><path d="M197.487,77.185a42.23,42.23,0,0,0,6.181,4.278c4.963,2.46,12.1,2.537,19.79-2.034,2.487-1.451,2.28-1.884,2.917-1.66a4.335,4.335,0,0,0,1.292.572,7.411,7.411,0,0,0,3.743-.215c1.95-.644,2.122-3.279,1.863-5.308a1,1,0,0,1-.024-.364.605.605,0,0,1,1.1-.232,9.221,9.221,0,0,0,6.8,3.077c1.785-.1,2.216-.575,2.368-1.515a3.6,3.6,0,0,0,.039-.687,8.571,8.571,0,0,0-.647-1.774.607.607,0,0,1,.36-.638c.243-.084.235-.124,2.413.506,8,2.342,12.273,5.755,16.775,11.08,4.053,4.981,4.232,6.084,7.751,9.217,3.777,3.364,5.728,3.053,7.274,4.754a3.586,3.586,0,0,1,.632,3.213,2.153,2.153,0,0,1-.752,1.076c-3.84,3.49-9.16,3.294-14,1.423-.036.047-.157.177-.2.22a10.064,10.064,0,0,1-4.136,2.425c-6.447,2.011-6.526-1.948-10.815-1.58-2.122.212-3.929,1.242-3.929,3.328,0,1.353,8.209,23.584,7.934,25.864a.632.632,0,0,1-.287.482c-2.931,1.96-6.817,1.812-10.246,2.621-2.428.561-1.061.711-3.294.441-13.082-1.539-26.43-2.22-39.662-2.57-10.776-.275-10.711-.063-10.711-.464,0-.01,0-.036.006-.046l.015-.037,0,0c1.87-4.277,5.463-8.247,8.78-11.53a19.682,19.682,0,0,1-2.071-2.451c-1.035-1.806-1.346-4.462-2.508-6.235h0a8.264,8.264,0,0,1-1.534.733,5.392,5.392,0,0,1-2.972.077c-2.527-.626-3.8-2.988-5.63-3.562-3.084-.9-7.818,2.973-10.778-.456a5.2,5.2,0,0,1-.905-1.453c-.157-.566-.418-1.8-.067-2.273.449-.539,1.086-.638,2-1.021.56-.254.46-.24,1.25-1.043,1.964-1.952,3.08-2.977,3.94-3.869,5.737-5.739,9.084-15.821,16.381-21.188,1.186-.837,1.36-.9,1.485-.982C196.919,76.5,196.783,76.572,197.487,77.185ZM181.1,108.709c3.219.086,3.932,3.076,6.809,3.789,3.062.751,4.095-1.42,4.778-.67.919,1.156,1.452,3.6,2.08,5.289a6.836,6.836,0,0,0,1.733,2.722c1.356,1.536,1.421,1.044.128,2.319-2.887,2.9-6.221,6.474-7.986,10.339,14.246.064,29.657.472,43.729,1.738,8.176.743,6.978.862,7.607.621,3.472-1.273,8.377-.992,11.23-2.894,0-2.191-7.951-24.167-8.035-24.932-.337-3.037,1.781-4.829,4.858-5.163a6.218,6.218,0,0,1,3.745.677c1.922.939,2.732,2.028,6.336,1.088,3.509-.989,4.455-2.653,4.677-2.851h0a.627.627,0,0,1,.648-.074,17.912,17.912,0,0,0,6.046,1.367,10.948,10.948,0,0,0,3.858-.546,8.987,8.987,0,0,0,3.489-2.17l.006-.011a1.741,1.741,0,0,0,.195-1.119c-.26-2.055-2.229-2.037-4.912-3.753-4.735-3.067-7.393-7.38-9.339-9.863-5-6.349-9.53-10.133-18.223-12.477a3.31,3.31,0,0,1-.977,3.77c-1.688,1.055-5.614.977-9.012-1.845,0,2.225-.55,4.374-2.661,5.158a8.673,8.673,0,0,1-4.406.307c-1.781-.433-.944-.75-1.8-.133a30.678,30.678,0,0,1-5.163,2.853c-6.349,2.759-13.579,2.944-19.216-.8-1.205-.794-4.049-2.949-4.658-3.484a18.317,18.317,0,0,0-2.973,1.984c-6.538,5.372-9.764,14.69-15.62,20.458-.07.072-4.652,4.514-4.756,4.593a5.4,5.4,0,0,1-1.25.567,3.636,3.636,0,0,0-.962.448l-.006.006h0a3.574,3.574,0,0,0,.168,1.431,4.059,4.059,0,0,0,.73,1.181C174.014,111.21,178,108.668,181.1,108.709Z" class="a"/><path d="M179.121,132.7c50.642,0,71.993,3.409,92.953,9.078,13.9,3.761,12.721,16.362-4.148,21.1C158.857,193.5,40.7,175.708,21.468,159.99a4.117,4.117,0,0,1-1.029-1.192,24.951,24.951,0,0,0,13.226,5.962c.9.128,4.924-12.637,14.038-15.285a19.165,19.165,0,0,0-2.44-5.34c3.812-.925,7.643-1.74,11.469-2.465,16.394-2.434,47.054-5.856,70.3-7.523C144.532,133.078,161.315,132.7,179.121,132.7Z" class="b"/><path d="M20.655,158.278a24.611,24.611,0,0,0,12.715,5.888c.193.03.145.064.253-.1,1.4-2.106,5.512-12.329,13.46-14.932A19.4,19.4,0,0,0,45,144.654c-.189-.305-.275-.383-.214-.665a.5.5,0,0,1,.357-.335c10-2.4,13.667-2.856,26.164-4.385,12.377-1.514,26.9-3.047,41.383-4.3,36.851-3.172,103.937-4.51,140.494,2,7.929,1.411,16.765,3.612,19.919,4.558a18.078,18.078,0,0,1,4.839,2.262c2.456,1.678,4.225,4.136,4.225,7.088,0,4.709-4.343,8.436-8.64,10.5h0c-3.649,1.712-6.587,2.428-14.107,4.369-51.319,13.074-106.744,16.969-158.418,12.994-20.037-1.55-58.229-6.246-75.956-15.756-1.253-.682-4.794-2.7-5.164-4.091A.561.561,0,0,1,20.655,158.278Zm126.4-24.831c-13.748.513-28.9,1.251-62.966,5.162-23.482,2.7-29.012,3.638-38.051,5.845a19.653,19.653,0,0,1,2.035,4.475c.114.391.231.6-.01.9h0a15.7,15.7,0,0,0-5.768,3.406c-5.137,4.75-7.315,11.77-8.477,12.054-.47.095-1.913-.447.231.32,45.742,16.131,146.884,20.607,231.484-2.658,4.7-1.284,9.84-2.837,13.292-6.767,2.192-2.479,3.054-5.652,1.323-8.614-1.545-2.628-4.724-4.235-7.665-5.129a217.567,217.567,0,0,0-27.547-5.82C217.6,132.67,173.085,132.512,147.059,133.447Z" class="a"/><path d="M281.624,150.836a1.158,1.158,0,0,1,.11.553c-.034,12.608-1.194,18.339-13.069,21.673-109.071,30.623-227.222,12.831-246.458-2.885-2.919-2.384-2.224-7.757-1.619-11.135a4.324,4.324,0,0,0,.88.948c19.236,15.718,137.389,33.51,246.458,2.885C277.112,160.295,281.648,155.383,281.624,150.836Z" class="b"/><path d="M281.688,150.6a.344.344,0,0,1,.074.034.335.335,0,0,1,.058.055l.021.034c-.115.059-.228.117,0,0,.168.411.15.375.128,2.4-.035,3.2-.185,7.464-1.185,10.524-2.209,6.7-7.355,8.434-14.276,10.352C212.4,188.89,152.5,193.172,99.7,188.749c-19.152-1.491-57.612-6.471-74.358-15.776a20.215,20.215,0,0,1-4.024-2.8c-2.223-2.386-2.045-6.453-1.581-9.693.249-1.685.238-1.891.727-2.038.488-.061.592.229.8.487a5.929,5.929,0,0,0,1.1.985c22.165,16.512,139.27,31.691,243.244,3.29a39.5,39.5,0,0,0,7.643-2.623c3.3-1.611,6.8-4.205,7.83-7.726C281.613,151.039,281.145,150.506,281.688,150.6Zm-.238,2.733c-1.653,5.021-8.058,8.28-13.124,9.73C206,181.228,123.332,185.329,60.224,173.515c-9.9-1.875-31.545-6.611-39.242-13.138-.391,2.584-.682,6.186.754,8.37a12.715,12.715,0,0,0,3.952,3.027c26.991,15.134,135.234,29.128,237.133,2.536,9.265-2.45,15.984-3.632,17.951-12.829A49.062,49.062,0,0,0,281.45,153.334Z" class="a"/><path d="M25.314,172.261C42.5,182.05,95.8,191.78,159.569,189.455c-.3,3.785-.965,7.368-1.875,8.81-7.225,11.432-37.3,19.8-50.261,21.455-20.6,2.628-63.363-3.855-75.246-23.523A50.108,50.108,0,0,1,25.314,172.261Z" class="b"/><path d="M160.171,189.5a46.539,46.539,0,0,1-.718,5.355c-.607,2.974-1.2,3.689-1.766,4.5-3.153,4.337-9.037,7.768-13.869,10.115-11.023,5.433-29.274,10.445-39.241,11.138a111.579,111.579,0,0,1-21.742-.7c-12.4-1.537-25.337-4.751-36.563-10.748-6.734-3.757-11.825-7.892-15.456-14.66a50.881,50.881,0,0,1-5.738-21.959c-.006-.248-.062-.464.2-.523l.04,0a.292.292,0,0,1,.077.015l.036.017c-.07.123-.223.392,0,0a73.14,73.14,0,0,0,13.628,5.445c28.453,8.381,67.68,11.573,97.136,11.7C159.443,189.392,160.171,188.156,160.171,189.5ZM25.574,172.8c.385,10.378,4.635,20.99,9.211,26.375,9.09,10.657,26.666,15.988,40.376,18.455,10.917,2.046,25.569,3,36.6.8,12.323-2.188,38.338-9.854,45.339-20.352.062-.1.132-.2.186-.309,1.064-1.953,1.622-7.249,1.622-7.68-5.091.243-19.863.505-33.952.07-25.943-.8-75.012-5.078-98.039-16.746C25.368,172.611,25.569,172.628,25.574,172.8Z" class="a"/><path d="M116.088,233.679c2.911,7.817,6.229,16.536,9.04,23.465-3.1,3.934-6.08,7.658-6.755,7.86-.757.229-10.876-5.089-11.187-5.532C107.015,259.227,111.564,246.757,116.088,233.679Zm37.982-44.053c4.926,5.449,5.426,14.7,3.129,21.159a88.3,88.3,0,0,1-12.862,23.1c-.577-15.351-2.325-32.688-6.669-44.089Q145.724,189.84,154.07,189.626Z" class="b"/><path d="M116.6,234.323c9.618,24.3,9.323,22.692,8.982,23.181-6.951,8.853-6.779,8.418-8.249,7.867a92.789,92.789,0,0,1-10.038-5.084c-1.15-.7-.91-.585.761-5.468,3.276-9.125,4.811-13.117,7.127-19.4.759-2.058.658-1.954.916-1.986.2.03.191.159.214.159C116.386,233.764,116.331,233.624,116.6,234.323Zm-8.758,24.889a84,84,0,0,0,10.384,5.175c.448,0,6.141-7.227,6.232-7.338l-.006-.012h0c-2.5-6.126-7.525-20.077-8.365-22.6C113.231,243.323,111.292,248.83,107.846,259.212Zm30.476-68.975a77.284,77.284,0,0,1,3.324,11.972c2.626,13.117,2.97,26.048,3.229,29.933A94.3,94.3,0,0,0,154.034,217c1.5-3.217,2.6-6.063,2.844-6.833,2.278-6.838,1.135-14.464-1.653-18.645a15.578,15.578,0,0,0-1.265-1.647C149.64,190.04,142.762,190.237,138.322,190.237Zm18.935,3.886a22.238,22.238,0,0,1,1.6,6.883,25.609,25.609,0,0,1-1.075,9.632,74.635,74.635,0,0,1-5.114,11.523,100.03,100.03,0,0,1-6.886,10.778c-1.015,1.406-1.083,1.611-1.576,1.534a.6.6,0,0,1-.474-.565c-.439-12.94-1.968-30.229-6-42.6-.5-1.492-.573-1.407-.464-1.707.214-.357.3-.252,2.423-.227,12.572.152,14.329-.121,14.563.089-.125.112-.338.3,0,0A14.644,14.644,0,0,1,157.257,194.123Z" class="a"/><path d="M37.044,177.177c20.473,6.721,57.122,12.382,100.624,12.617,9.318,24.446,6.685,76.182,6.2,77.141-.046.091-12.6,3.079-12.855,2.832-3.346-3.348-22.308-56.224-22.308-56.224s-14.291.144-23.856-.812c-9.431-.941-25.951-5.875-33.633-11.881C39.582,191.752,37.342,182.086,37.044,177.177Z" class="b"/><path d="M116.879,188.722c18.43.822,20.693.193,21.226.7.1.144.067.075.425,1.048a98.715,98.715,0,0,1,4.323,18.764c3.236,22.845,2.4,51.761,1.658,57.653a.828.828,0,0,1-.189.458h0c-.175.175-.146.188-2.759.807-1.856.455-7.513,1.769-9.427,2.1a3.529,3.529,0,0,1-1.29.1c-2.766-.963-21.524-53.437-22.524-56.245-4.694.061-15.322-.137-21.9-.727a90.288,90.288,0,0,1-26.327-7.051c-6.323-2.834-10.629-5.634-15.576-11.367-4.31-5.173-7.167-10.9-7.681-17.291-.035-.479-.071-.559.062-.684l.033-.022a.226.226,0,0,1,.152-.027l.038.009c-.039.123-.044.138,0,0C59.49,184.321,93.1,187.662,116.879,188.722Zm-8,24.287c.366.154.36.341.575.941,4.509,12.412,11.607,31.656,16.585,43.826,4.492,10.946,5.127,11.116,5.258,11.38,2.957-.493,10.814-2.356,12.045-2.7.713-4.27,2.45-53.719-6.067-76.1-5.233,0-15.072-.232-27.1-.935-24.1-1.574-49.812-4.731-72.858-11.9a26.265,26.265,0,0,0,1.814,7.531c3.191,7.978,10.426,15.167,17.424,18.693A87.746,87.746,0,0,0,76.8,210.867a69.462,69.462,0,0,0,13.583,1.766C97.835,213.093,108.645,212.959,108.878,213.009Z" class="a"/><path d="M277.588,168.506a1.262,1.262,0,0,0,.422-.073s-.043,3.241-.125,4.279a32.012,32.012,0,0,1-5.7,15.692c-9.956,13.961-45.784,18.562-63.048,16.695-10.854-1.17-36.055-7.115-42.11-15.229a3.7,3.7,0,0,1-.4-.721c32.682-1.634,67.808-6.476,102.039-16.087C272.807,171.9,275.645,170.444,277.588,168.506Z" class="b"/><path d="M278.074,168.193l.037.014a.288.288,0,0,1,.07.045,35.591,35.591,0,0,1-.128,5.628,32.537,32.537,0,0,1-4.46,13.048,21.008,21.008,0,0,1-4.681,5.533c-12.729,10.909-43.711,15.291-61.9,12.971-10.419-1.49-34.406-6.932-40.533-15.29a3.327,3.327,0,0,1-.459-.935.611.611,0,0,1,.385-.623c1.216-.392,47.964-1.067,101.779-15.7,3.216-.881,6.628-2.078,9.052-4.371.172-.164.2-.222.333-.245l0,0a1.463,1.463,0,0,0,.428-.077A.3.3,0,0,1,278.074,168.193Zm-8.007,4.757c-3.363,1.088-15.854,4.508-29.926,7.493a477.29,477.29,0,0,1-72.47,9.262c4.09,5.457,18.06,9.77,24.925,11.567a135.5,135.5,0,0,0,15,3.048c16.783,2.187,49.311-1.819,61.695-13.249,3.6-3.182,6.42-8.985,7.519-13.6a34.29,34.29,0,0,0,.94-8.733A18.687,18.687,0,0,1,270.067,172.95Zm7.793-4.716-.009.009.015-.011Z" class="a"/><path d="M264.064,174.324c-.033.193-.058.375-.079.543a19.688,19.688,0,0,1-6.055,11.848c-14.371,14.034-48.712,13.5-49.271,14.059-.363.363-4.258,53-4.39,53.128-.427.425-21.931.376-24.733-1.026-.439-.217-4.57-44.016,2.8-64.75A460.867,460.867,0,0,0,264.064,174.324Z" class="a"/><path d="M264.119,174.088c.285.09.165.336.113.8a18.537,18.537,0,0,1-1.365,5.209c-4.627,11.388-19.918,16.318-31.94,18.662-10.112,1.974-20.585,2.261-21.812,2.45-.388,1.938-4.056,51.677-4.241,52.7a.643.643,0,0,1-.5.595c-1.816.453-20.948.328-24.714-.925-.761-.254-.779-.218-1.091-3.132-1.605-15.861-2.2-46.246,2.676-60.873a16.273,16.273,0,0,1,.639-1.808c.3-.332-.172-.113,7.28-.8C236.233,182.6,263.231,173.951,264.119,174.088ZM248.4,178.521a459.958,459.958,0,0,1-65.642,10.146c-.067.133-.94,2.873-1.377,4.842-4.413,18.452-2.452,53.336-1.335,58.918h0c2.809,1.081,20.5,1.287,23.682.971,0-.1,4.019-51.66,4.438-52.817.205-.409.472-.411,2.151-.519,8.2-.512,19.143-1.253,29.309-4.228,8.5-2.458,18.22-6.852,22.164-14.737a18.74,18.74,0,0,0,1.958-6.324C263.789,174.459,264.435,174.739,248.4,178.521Z" class="a"/><path d="M193.415,187.109c13.127,11.642,43.527,40.142,43.4,40.273-4.243,4.244-21.8,14.869-21.8,14.869s-4.958-4.613-7.219-6.5c-9.18-7.653-17.667-16.167-26.85-23.82-4.864-4.054-10.21-11.44-10.726-22.979C177.841,188.523,185.588,187.915,193.415,187.109Z" class="a"/><path d="M170.665,189.354a32.76,32.76,0,0,0,3.11,12.4,28.446,28.446,0,0,0,7.42,9.648c5.658,4.741,7.8,6.723,15.242,13.512,10.752,9.835,8.208,7.061,18.653,16.576.56-.3,17.547-10.777,20.9-14.132-1.8-1.864-34.61-32.808-42.662-40C183.723,188.475,174.5,189.074,170.665,189.354Zm48.891,21.034c18.822,17.373,17.948,16.752,17.8,17.2,1.658,0-21.279,15.14-22.3,15.269-.541,0-.007.072-6.953-6.046-12.292-10.447-17.912-16.34-27.519-24.437a30.785,30.785,0,0,1-10.466-19.713,24.484,24.484,0,0,1-.269-3.9c.3-.458-.364,0,14.413-1.116,8.46-.639,9.124-.878,9.321-.721-.115.129-.3.335,0,0C208.016,199.6,219.408,210.388,219.556,210.388Z" class="a"/><path d="M208.849,200.932l.018-.024.006-.015v0l.006-.012,0,0,.006-.01c-.05.1-.225,4.779-.229,4.879-.507,15.361-1.905,34.018-2.193,34.478l-.336.071h0c-.085-.387-.065-.373-.1-.269l0-.006,0,.015v-.024l0-.016c0-7.178,1.523-37.74,2.432-39.375l.015-.012.345-.031Z" class="b"/><path d="M182.564,188.205c-.695,2.083-2.033,8.659-2.084,8.759-1.045,4.814-1.892,10.018-2.56,14.82h0c-.221,1.574-.215,1.551-.385,3l-.259.229-.229-.26a78.673,78.673,0,0,1,2.276-18.052,55.081,55.081,0,0,1,2.719-8.508c.082-.193,0-.123.372-.3Z" class="b"/><path d="M50.124,168.094c.811.233,3.575.813,4.178.536.332-.667-2.012-1.728-2.7-2.008-.367-.149-2.3-.733-2.573-.923a.6.6,0,0,1-.147-.734c.46-.718.941-.072,4.1.779.825.221,4.044,1.039,4.7.486l.012-.013c.137-.205-.089-.888-2.37-1.876a25.621,25.621,0,0,0-4.056-1.307c-.742-.2-1.128-.211-1.221-.749a.6.6,0,0,1,.429-.63c.57-.119,2.249.674,5.292,1.126.621.087,2.454.312,2.951-.073l.021-.018c.108-.117.032-.453-.66-.856-2.228-1.27-6.818-1.613-8.357-3.417A3.227,3.227,0,0,1,48.8,156.3c.046-1.239,1.034-2.086,1.574-3.1.3-.575.448-1.141-.072-1.519a1.218,1.218,0,0,0-1.005-.15,31.343,31.343,0,0,0-3.519,2.261c-.3.1-.662-.263-2.283-1.848-.167-.166-.129-.056-.149-.476.414-.019.312-.05.491.114.406.37,1.37,1.258,1.809,1.578.662-.528,1.628-1.216,2.328-1.693a2.735,2.735,0,0,1,1.877-.729,1.719,1.719,0,0,1,1.509,1.045c.482,1.268-.813,2.643-1.337,3.609a1.613,1.613,0,0,0,.2,2.061,2.578,2.578,0,0,0,1.061.921c2.252,1.093,6.682,1.525,8.153,3.064a1.429,1.429,0,0,1-.373,2.4,3.14,3.14,0,0,1-.921.226c-.674.074-.724-.015-.585.079.925.616,1.678,1.506,1.257,2.539-.55,1.209-2.451.986-3.756.77a1.519,1.519,0,0,1,.253,1.632,1.1,1.1,0,0,1-.9.654,13.445,13.445,0,0,1-4.909-.792c-.886-.3-4.1-1.554-6.437-2.653a39.765,39.765,0,0,1-4.664-2.582c-.513-.338-2.781-1.92-2.843-2.337a.242.242,0,0,1,.338-.238h0l.045.111.037-.053C38.287,163.723,46.6,167.068,50.124,168.094Zm4.2.526h0l0,0Zm-8.557-15.382-.008,0h0Zm0,0-.007,0Z" class="a"/><path d="M93.035,164.935c-.226.03,3.159-40.393,5.967-49.045.828-2.552,69.286-18.858,70.12-18.027.767.767-3.776,48.712-3.977,48.912C164.592,147.327,110.039,162.688,93.035,164.935Z" class="b"/><path d="M92.983,165.175c-.655-.068,2.952-41.619,5.539-49.445h0c.785-3.02,66.242-18.37,70.337-18.505,1.056-.029.957.786.957,1.926-.273,9.2-3.2,39.977-3.856,45.8-.227,2.141-.163,2.213-.815,2.461-4.881,1.81-54.583,15.366-71.462,17.681a3.761,3.761,0,0,1-.7.077Zm12.388-51.307c-5.7,1.76-5.808,2.2-5.908,2.235-2.964,10.364-6.186,46.689-6.186,48.553,14.94-2.154,65.967-16.337,71.345-18.291.811-7.19,3.972-41.06,3.972-47.9C163.487,99.063,122.449,108.6,105.371,113.868Z" class="a"/><path d="M163.431,104.044c1.009.2.9,1.021.9,2.059.108,3.329-.679,13.152-.767,14.361l0,0c-.713,9.73-.484,8.349-.733,8.894l-.339.136h-.006l-.33-.154-.138-.349c0-4.922.365-13.045.413-18.626,0-4.016-.064-3.68-.064-4.265a63.95,63.95,0,0,0-14.817,3.369c-5.256,1.8-3.765,1.582-5.245,1.523l-.636-.682,0-.006.037-.931c.828-.773.37-.529,2.12-1.147a85.954,85.954,0,0,1,11.963-3.335A44.962,44.962,0,0,1,163.431,104.044Z" class="a"/><path d="M95.045,142.367c-1.17,10.917-2.01,21.142-2.019,22.431-4.952-.155-33.8-11.469-33.882-12.392-.067-.733-.218-2.964.293-2.79.647.22,2.729,1.212,2.729,1.212S88.175,143.871,95.045,142.367Z" class="a"/><path d="M95.076,142.126a.236.236,0,0,1,.144.075l.027.032a.518.518,0,0,1,.034.076l.006.042,0,.041c-.158-.017-.449-.048,0,0-.01.113-1.269,14.2-1.656,20.828-.116,1.868-.04,1.6-.137,1.828-.224.347-.485.31-1.149.223-5.081-.62-21.742-7.067-27.131-9.3-6.381-2.65-6.624-2.973-6.679-3.588-.066-.79-.2-2.443.229-3.056h0c.4-.52.881-.288,1.3-.116.625.262,1.407.626,2.022.916.4.188,1.476-.493,22.193-5.524C85.4,144.333,94.709,142.113,95.076,142.126ZM61.989,151.4h0l-.078-.03c-1.544-.733-2.115-.954-2.216-1a11.34,11.34,0,0,0,.018,1.565c.018.247,0,.2.089.253,3.252,1.952,26.923,11.165,32.72,12.035.58-7.179,1.594-16.517,2.236-21.531C87.59,144.394,62.513,151.52,61.989,151.4Z" class="a"/><path d="M95.169,139.308c-1.17,10.917-2.01,21.141-2.019,22.431-4.952-.155-34.523-11.723-33.882-12.392C62.471,146.009,87.1,141.074,95.169,139.308Z" class="b"/><path d="M95.2,139.067a.264.264,0,0,1,.147.074l.024.033a.518.518,0,0,1,.034.076l.006.042,0,.041c-.158-.017-.449-.048,0,0-2.119,24.567-1.619,22.258-1.791,22.658-.227.358-.5.3-1.075.234-5.767-.726-28.5-9.467-32.881-11.829-.511-.276-1.01-.528-1.01-1.067.164-1.246,5.1-2.889,6.255-3.271C74.193,143.02,95.1,139.063,95.2,139.067Zm-.37.569c-6.552,1.524-29.852,6.6-34.589,9.7,4.207,2.239,27.25,11.146,32.4,11.816,0-.87.785-8.614.874-9.472C94.828,139.038,94.991,139.6,94.83,139.636Z" class="a"/><path d="M167.61,121.214q.33-.055.66-.093c1.185-.134,3.4.532,4.439-.057.122-.071.186-.681.229-.837.259-.945.376-1.885.556-2.846a56.024,56.024,0,0,1,2.236-7.247c2.016-.306,4.188-1.259,6.049-.959,2.157.35,3.376,2.885,5.67,3.587,3.223.985,4.695-1.085,4.976-.694,1.177,1.632,1.555,4.44,2.527,6.294a20.769,20.769,0,0,0,2.3,2.748c-3.73,3.687-7.268,7.485-9.229,12.179-3.278,3.019-5.731,5.426-10.326,6.338-1.946.387-4.289-.1-6.259-.142q-2.75-.063-5.5-.131C166.415,134.471,167.039,127.789,167.61,121.214Z" class="b"/><path d="M168.832,120.844c1.323.033,2.706.378,3.657-.021v0a5.145,5.145,0,0,0,.113-.6c.6-2.524.279-3.079,1.79-7.539,1.036-3.053.9-2.772,1.069-2.918.154-.095.106-.055.654-.167,2.7-.549,4.964-1.757,7.387-.288,1.472.972,2.324,2.2,3.883,2.838a4.576,4.576,0,0,0,3.5-.067c.836-.4,1-.609,1.408-.64.482-.007.636.288.956.832,1.11,1.9,1.455,4.937,2.722,6.5,1.587,1.971,2.076,1.94,1.83,2.6-.542.888-6.414,5.625-9.174,12.046-.128.3.031.107-1.243,1.286a21.4,21.4,0,0,1-7.009,4.776c-3.073,1.131-4.566.945-7.835.617-1.046-.091-.871-.051-5.234-.209-1.615-.055-1.47-.024-1.668-.157-.267-.269-.206-.127.144-3.341,1.679-15.946,1.56-15.254,1.686-15.367a.267.267,0,0,1,.071-.037l.039-.01v0A5.71,5.71,0,0,1,168.832,120.844Zm7.243-10.3c-.407,1.157-1.049,2.868-1.265,3.523-1.094,3.064-.948,3.978-1.695,6.889a.647.647,0,0,1-.217.36c-1.1.7-3.375-.124-5.059.11-.36,4.9-.939,12.55-1.375,17.447a71.787,71.787,0,0,1,7.552.237,11.621,11.621,0,0,0,6.535-.978,21.636,21.636,0,0,0,6.155-4.459c1.016-.936.715-.579,1.048-1.293,1.816-4.119,5.455-8.153,8.652-11.286a19.2,19.2,0,0,1-1.864-2.247c-.971-1.672-1.45-4.582-2.389-6.13a6.082,6.082,0,0,1-2.08.805,6.016,6.016,0,0,1-3.26-.4c-1.653-.7-2.817-2.269-3.971-2.97h0C180.984,108.981,178.765,110.085,176.075,110.547Z" class="a"/><path d="M227.56,142.631c.152.373-.089.809-1,2.747-2.739,5.8-8.267,16.7-10.79,20.838-.972,1.518-.915,1.466-2.844,1.449-5.536-.066-39.087-2.419-41.563-3.563a.61.61,0,0,1-.287-.89c1.042-1.895,18.864-22.629,21.214-24.333.074.1.088.124,0,0,.193-.112,21.8,1.939,28.057,2.587C227.4,142.207,227.345,142.2,227.56,142.631ZM192.4,139.424c-1.062.531-14.034,16.212-16.094,18.753-3.349,4.115-3.869,4.929-3.989,5.082.1.01,4.191.879,26.236,2.413.624.043,15.329,1.09,15.671.665,1.218-1.654,4.377-7.732,5.362-9.618,5.765-11.109,6.5-13.067,6.715-13.461C225.347,143.117,192.663,139.194,192.4,139.424Z" class="a"/><path d="M134.376,138.637c-2.008,0-3.805-.476-4.592-2.331-.635-1.494-.806-1.9,3.471-11.05a3.54,3.54,0,0,1,2.7-2c2.27-.324,2.987.741,5.363,4.267,2.2,3.266,2.529,4.177,2.67,4.567a3.7,3.7,0,0,1-1.454,4.542A19.912,19.912,0,0,1,134.376,138.637Z" class="d"/><path d="M209.671,158.655a170.952,170.952,0,0,0-20.037-3.295.611.611,0,0,1-.637-1.006c.245-.246.5-.5,9.347.895,4.215.665,9.494,1.6,11.669,2.232A.611.611,0,0,1,209.671,158.655Zm-20.078-3.291Zm.272-.149h0Zm0,0h0Z" class="d"/><path d="M211.364,149.841c-3.443-1-14.306-2.58-15.433-2.424a.611.611,0,0,1-.156-1.212c1.407-.179,12.424,1.445,15.93,2.463A.611.611,0,0,1,211.364,149.841Z" class="d"/><path d="M72.109,51.523a2.821,2.821,0,0,1-2.365-.475c-.168-.465-2.661-3.485-5.275-1.875-1.816,1.118-1.719,4.079-1.283,5.838.6,2.447,2.748,2.488,4.515,2.309.067-.006-.175,11.394.18,12.381.574,1.594,16.084,10.925,17.159,10.04,1.824-1.5-.394-9.14-.229-9.343.254-.31,4.18.887,7.791-.5,6.962-2.684,6.183-10.018,6.1-14.724a72.073,72.073,0,0,0-1.759-13.024,50.874,50.874,0,0,0-1.8-6.33c-.376,1.674-3.052,2.4-4.457,2.681a26.8,26.8,0,0,1-14.215-1.143c-1.6-.609-5.99-3.738-5.96-3.42a89.241,89.241,0,0,0,1.925,9.35c.394,1.828,1.338,4.117,1.06,6.048A2.407,2.407,0,0,1,72.109,51.523Z" class="b"/><path d="M94.966,35.251h0a.617.617,0,0,1,.776.409,67.738,67.738,0,0,1,2.71,11.225c.89,4.959,1.193,12.426.675,15.322a9.9,9.9,0,0,1-4.8,7.542C91.412,71.4,88.75,71.3,85.49,70.974l0,0c.46,2.422,1.634,7.326.1,9.046a1.013,1.013,0,0,1-1.029.345,17.866,17.866,0,0,1-3.959-1.642A98.459,98.459,0,0,1,69.634,72c-.794-.6-2.006-1.469-2.251-2.147-.36-1.5-.1-9.63-.1-12.065-3.317.2-4.549-1.224-4.714-4.456-.2-5.1,3.779-6.059,6.309-3.72a6.617,6.617,0,0,1,.546.534c.82.957.325.653.847.919a2.322,2.322,0,0,0,1.744.235l0,0a2.055,2.055,0,0,0,.587-.395,3.516,3.516,0,0,0,.666-2.449,21.133,21.133,0,0,0-.969-4.387,98.9,98.9,0,0,1-2.2-10.143.429.429,0,0,1,.427-.429,11.813,11.813,0,0,1,2.832,1.583,15.567,15.567,0,0,0,6.1,2.674,27.384,27.384,0,0,0,5.227.674c2.629.071,6.847-.219,9.037-1.653,1.129-.88.638-1.109,1.1-1.452h0A.714.714,0,0,1,94.966,35.251Zm-26.829,22.1c.086.785-.08,10.449.217,12.1.243,1.15,14,9.514,16.393,9.761a1.259,1.259,0,0,0,.266-.556c.5-1.546-.257-5.3-.565-6.8a12.557,12.557,0,0,1-.245-1.389.665.665,0,0,1,.132-.432c.354-.4.875-.293,1.536-.225,3.281.348,5.71.3,8.469-1.495,3.619-2.613,3.916-6.689,3.8-11.254a59.024,59.024,0,0,0-1.234-11.983,68.2,68.2,0,0,0-1.885-7.895,5.532,5.532,0,0,1-2.12,1.284c-4.606,1.719-12.357,1.2-16.821-.765-1.432-.659-3.84-2.326-5.08-3.081.244,2.051.88,4.705,1.375,6.858.33,1.436.369,1.737.5,2.255.589,2.435,1.238,3.922.779,6.207a2.649,2.649,0,0,1-.636,1.263,2.593,2.593,0,0,1-.806.545v0a2.829,2.829,0,0,1-2.722-.61h0l0-.01-.007-.009c-.007-.023-.022-.034-.033-.062-1.247-1.622-3.118-2.7-4.841-1.581-1.312.87-1.451,2.884-1.238,4.442A3.573,3.573,0,0,0,64.46,56.4C66.09,57.624,68.137,56.291,68.137,57.348Zm.233,12.177,0,0,0,0Z" class="a"/><path d="M63.259,50.721a6.137,6.137,0,0,1-.7-.707c-2.29-2.72-4.4-3.939-4.68-8.945-.121-2.153-.793-4.448-.239-6.612a13.48,13.48,0,0,1,2.249-4.246,9.006,9.006,0,0,1,4.626-2.965c.488-.078,2.439.3,2.757.035.476-.4,1.552-3.916,4.118-4.893,24.58-9.35,26.053,7.478,26.181,7.632a17.517,17.517,0,0,1,2.74,3.329c1.937,3.963-.434,7.984-2.881,10.044a.293.293,0,0,1-.235.009,49.524,49.524,0,0,0-2.05-7.587c-.376,1.674-3.052,2.4-4.457,2.681a26.8,26.8,0,0,1-14.215-1.143c-1.6-.609-5.99-3.738-5.96-3.42a89.241,89.241,0,0,0,1.925,9.35c.394,1.828,1.338,4.117,1.06,6.048a2.407,2.407,0,0,1-1.387,2.192,2.821,2.821,0,0,1-2.365-.475c-.168-.465-2.661-3.485-5.275-1.875A2.99,2.99,0,0,0,63.259,50.721Z" class="a"/><path d="M59.36,46.77a10.329,10.329,0,0,1-1.814-5.391c-.313-3.75-1.13-5.586.25-8.574a17.867,17.867,0,0,1,2-3.211,10.094,10.094,0,0,1,4.185-2.733,3.836,3.836,0,0,1,1.8-.048,4.856,4.856,0,0,0,1.195.017,19.658,19.658,0,0,1,1.879-3.151,5.68,5.68,0,0,1,2.484-1.858c10.4-3.981,22.1-5.011,26.108,5.416a15.147,15.147,0,0,1,.681,2.5,13.546,13.546,0,0,1,2.847,3.593c1.566,3.665.178,7.276-2.67,10.092-.469.434-.62.633-1.081.6a.732.732,0,0,1-.428-.161c-.4-.41.094-.1-1.644-6.179l0,0c-.074-.262-.067-.239-.134-.461h0a4.411,4.411,0,0,1-.837.661,12.21,12.21,0,0,1-4.253,1.357h0a27.3,27.3,0,0,1-7.035.175,24.541,24.541,0,0,1-7.13-1.778c-1.01-.524-1.546-.882-2.42-1.423-2.494-1.585-2.23-1.472-2.215-1.335.442,2.951.895,4.512,1.479,7.16.184.8.188.93.409,1.847a17.943,17.943,0,0,1,.907,4.909c-.085,1.391-.468,2.672-1.811,3.1a2.915,2.915,0,0,1-2.673-.744,5.056,5.056,0,0,0-1.488-1.509,2.822,2.822,0,0,0-4.175.587,4.065,4.065,0,0,0-.306.617.238.238,0,0,1-.367.059c.111-.128.3-.341,0,0A47.991,47.991,0,0,1,59.36,46.77ZM70.6,33.409c.665.093,3.3,2.073,5.6,3.224a16.569,16.569,0,0,0,2.426.837,26.833,26.833,0,0,0,11.114.6h0A9.472,9.472,0,0,0,94,36.533c.723-.677.411-.92.812-1.227h0a.607.607,0,0,1,.4-.1c.522.083.6.42,1.1,2.142,0,.1.918,3.047,1.3,5.059,2.024-1.987,3.367-4.954,2.563-7.725-.509-1.757-1.421-2.48-2.765-3.923-.526-.56-.379-.408-.6-1.444a12.79,12.79,0,0,0-1.255-3.328c-2.554-4.359-6.685-6-11.936-5.825A39.616,39.616,0,0,0,71.4,22.973c-1.69.782-2.525,2.523-3.342,4.034-.6,1.073-.745.95-3,.747a1.88,1.88,0,0,0-.988.105,9.382,9.382,0,0,0-2.871,1.649A7.486,7.486,0,0,0,59.58,31.43c-2.037,3.063-1.928,4.425-1.5,7.955.185,1.557.131,1.9.265,2.875C58.853,46,60.316,47,62.578,49.641a7.706,7.706,0,0,0,.591.662c1.2-2.561,4.528-2.471,6.584.173.33.419.162.333.4.46a3.191,3.191,0,0,0,1.179.362,1.291,1.291,0,0,0,.861-.208c2.049-1.373.37-5.443-.269-8.142a85.015,85.015,0,0,1-1.915-8.976A.523.523,0,0,1,70.6,33.409Zm-3.59-6.564h0l0,0Z" class="a"/><path d="M93.553,46.188a64.406,64.406,0,0,1,1.674,6.229c.123.558.363,1.661.416,2.23a.687.687,0,0,1-.358.7c-1.086.671-3.3.6-3.925.658l.015,0h0l-.009,0L91.381,56h0l.021-.011h0l.04-.028.049-.056c.04-.1.105-.124-.257.112l-.189-.288h0a.262.262,0,0,1,.03-.076h0l.022-.03h0a.25.25,0,0,1,.134-.087h0a26.846,26.846,0,0,0,3.2-1.025,49.147,49.147,0,0,1-1.372-8.279l0-.007V46.2l.242-.25Zm1.081,8.189h0l0,0h0Z" class="a"/><path d="M94.034,61.569l0,.006a2.2,2.2,0,0,1-.968.759h0a2.836,2.836,0,0,1-.706.137c-.13.006-.179,0-.269,0h0a2.309,2.309,0,0,1-1.927-.93.255.255,0,0,1-.058-.088l-.013-.036h0c0-.077-.018,0,0-.125h0l.016-.039h0l.018-.034a.306.306,0,0,1,.052-.056h0l.03-.021.037-.017h0l.312.139-.016-.036h0l-.027-.038h0l0,0-.018-.019.009,0-.012-.01.012,0-.009-.006c.158.024.6.029.708.034a7.062,7.062,0,0,0,1.583.009h0c1.3-.044.8-.107,1.329.02Zm-3.614.02c.167-.157.131-.082.15-.288l-.012-.024Z" class="a"/><path d="M84.869,43.679a5.263,5.263,0,0,1,4.421,1.963c-.1,0,.221-.087.748,1.575.6,1.855.924,3.6-.152,5.216-2.807,3.813-10.3,2.5-10.3-3.558A5.722,5.722,0,0,1,82.1,44.331,4.8,4.8,0,0,1,84.869,43.679Zm.446.876a3.992,3.992,0,0,0-4.17,2.655,4.238,4.238,0,0,0-.165,3.05v.008a4.511,4.511,0,0,0,2.081,2.572,5.33,5.33,0,0,0,5.713-.721,3.944,3.944,0,0,0,.87-3.581,11.709,11.709,0,0,0-.562-2.3,1.694,1.694,0,0,0-.183-.307l0,0A4.622,4.622,0,0,0,85.315,44.555Zm3.972,1.087h0l-.009-.006Z" class="a"/><path d="M102.625,44.377a4.025,4.025,0,0,0-4.213-1.587c-1.331.188-2.334,1.266-2.911,2.947-.985,2.859.515,5.993,2.746,6.66a4.126,4.126,0,0,0,4.993-2.267,7.541,7.541,0,0,0-.071-4.223A4.338,4.338,0,0,0,102.625,44.377Z" class="b"/><path d="M99.1,42.292a4.221,4.221,0,0,1,3.738,1.969h0a3.572,3.572,0,0,1,.528,1.176,8.577,8.577,0,0,1,.429,4.623l0,0a4.367,4.367,0,0,1-4.174,3.095,4.24,4.24,0,0,1-3.264-1.2c-2.9-2.744-1.933-8.041,1.013-9.37A3.853,3.853,0,0,1,99.1,42.292ZM97.961,43.41c-1.364.617-2.111,2.537-2.167,3.849-.1,2.3,1.222,4.628,3.545,4.7a3.964,3.964,0,0,0,2.12-.539,3.173,3.173,0,0,0,1.375-1.661,5.752,5.752,0,0,0,.2-2.5,9.645,9.645,0,0,0-.586-2.706v0l-.013-.018-.008-.016,0,0a3.5,3.5,0,0,0-1.3-1.046A4.445,4.445,0,0,0,97.961,43.41Zm4.881.851h0l0-.005Z" class="a"/><path d="M85.764,50.324a.611.611,0,0,1-.611-.611c0-.317.028-.677.028-1.587,0-1.177,1.45-.873,1.23,0-.038,1.909-.036,1.151-.036,1.592A.61.61,0,0,1,85.764,50.324Z" class="d"/><path d="M97.806,48.8a.61.61,0,0,1-.6-.515c-.039-.238-.107-.846-.223-1.571-.188-1.16,1.3-1.09,1.212-.2.263,1.854.13,1.027.217,1.578A.61.61,0,0,1,97.806,48.8Z" class="d"/><path d="M90.4,48.86c-.366,0-.474-.128-.563-.437a.611.611,0,0,1,.416-.757c.272-.08-.412.109,1.514-.243a25.6,25.6,0,0,1,3.239-.483.611.611,0,0,1,0,1.222C94.155,48.162,91.036,48.86,90.4,48.86Z" class="d"/><path d="M79.911,48.732c-6.234,0-6.249-.12-6.319-.7l.606-.075.053-.608c.222.015,4.461.157,5.66.157a.611.611,0,1,1,0,1.222Z" class="d"/><path d="M243.724,106.744c-.293-4.052,4.451-4.636,6.284-4.229,1.958.434,3.193,1.871,5.013,2.024,2.9.243,6.666-1.245,8.139-3.29a19.24,19.24,0,0,0,6.773,1.43c1.99,4.323,4.49,8.336,5.447,13.471,1.68,9.046,2.233,15.413,0,17.966-4.519,5.165-27.871,14-37.185,17.989-4.757,2.038-21.889,5-22.919,3.836-1.829-2.068,4.858-2.813,4.858-2.813s-6.367-.029-6.474-1.023c-.14-1.332,2.014-1.967,4.033-2.272a25.788,25.788,0,0,0,3.366-.283,28.877,28.877,0,0,0-3.366.283c-1.509.009-2.218-.127-2.417-1.109-.433-2.162,5.524-2.127,5.783-2.386.123-.121-.394-1.274-.461-1.468a3.069,3.069,0,0,1,.37-2.936c1.4-1.4,3.779,3.688,4.035,3.946.01.01,3.346-1.01,3.346-1.01s18.931-20.362,21.458-20.529C249.807,124.341,246.507,114.981,243.724,106.744Z" class="b"/><path d="M243.471,106.663c-.169-2.709,1.88-4.185,4.579-4.5,3.2-.334,4.256,1.325,6.25,1.907,1.949.552,5.7-.353,7.76-2.193.807-.722.661-.814.92-.972h0c.487-.209,2.426,1.14,6.128,1.332,1.006.05,1.043-.113,1.31.476,2.631,5.587,4.524,8.045,5.729,14.813a81.746,81.746,0,0,1,1.173,8.527c.217,2.776.217,6.57-1.665,8.6-5.486,5.438-24.656,12.7-36.547,17.722a37.063,37.063,0,0,1-6.873,2.1c-2.068.48-15.713,3.338-17.325,1.955h0a1.906,1.906,0,0,1-.48-.727c-.345-1.045.513-1.778,1.531-2.2-.832-.1-2.371-.289-2.786-.994h0a1.35,1.35,0,0,1-.046-1.018,2.536,2.536,0,0,1,1.442-1.426c.76-.342.64-.177.5-.387a1.9,1.9,0,0,1-.3-1.705c.6-1.628,3.878-1.878,5.621-2.077l0,0c-.159-.427-.288-.736-.311-.8-.469-1.24-.286-3.276.919-3.842,1.733-.709,3.324,2.382,4.256,4.009.648-.192,1.705-.508,2.425-.725v0l.388-.118c0,.1,17.447-18.687,21.275-20.314C249.3,124,243.5,107.047,243.471,106.663Zm-22.308,42.3a.594.594,0,0,1,.092,1.146,24.417,24.417,0,0,1-3.162.311c-.913.025-3.6.58-3.816,1.421l-.006.012,0,.012v.012l-.006.024v0c.944.564,5.876.615,5.979.625a.6.6,0,0,1,.5.563c-.02.648-.548.628-1.03.7-.972.144-3.492.6-4.106,1.366l-.027.047v0l0,0v.007l0,0v.01l0,0v.021l0,0v.013l0,.006v.006a.386.386,0,0,0,.03.066l0,.011a1.143,1.143,0,0,0,.086.121c.131.2,2.431.1,4.524-.14a97.524,97.524,0,0,0,17.157-3.569c.116-.045,13.074-5.353,18.119-7.526,4.114-1.776,16.449-7.086,19.414-10.453a5.92,5.92,0,0,0,1.228-3.074c.679-3.948-.914-13.828-1.927-17.265-1.051-3.562-3.311-7.627-4.476-10.185-.095-.211-.006-.166-.327-.177a18.375,18.375,0,0,1-6.107-1.388,10.388,10.388,0,0,1-6.757,3.156,5.646,5.646,0,0,1-3.608-.672c-1.532-.79-2.376-1.533-4.262-1.494-2.561.064-4.884,1.346-4.707,3.891,0,.4,6.184,17.553,6.2,17.747a.359.359,0,0,1-.333.364c-2.374.238-21.11,20.541-21.21,20.611.123,0-1.858.594-2.939.925-1.134.34-.915.306-1.916-1.4a7.361,7.361,0,0,0-2.129-2.569l-.04-.013a.334.334,0,0,0-.082-.015H221.5l-.015,0c-.009,0-.022.008-.037.013l0,0-.006,0,0,0-.018.011,0,0-.009,0a1.1,1.1,0,0,0-.223.287,2.044,2.044,0,0,0-.214.852,3.36,3.36,0,0,0,.18,1.286c.3.846.715,1.478.358,1.982-.263.3-.506.269-2.044.462a11.485,11.485,0,0,0-2.857.639,1.631,1.631,0,0,0-.7.483l0,.009-.019.027,0,.008-.006.009-.006.016-.006.009-.006.016v.008l-.009.024v.008l-.006.017v.008l0,.009v.026l0,.01v.04l0,.011v.022l.006.025v.012c.006.032.018.08.024.108l.006.014.006.028.006.012,0,.013.006.012.006.023.006.011,0,.01.006.011,0,.01.006.009.006.018.006.008,0,.009c.305.4,1.407.385,2.224.281A25.774,25.774,0,0,1,221.163,148.965Zm-6.9,3.073h0Z" class="a"/><path d="M257.829,120.8l-.18.294c-.606.254-1.745.764-2.212.939-.043.017-1.671.611-2.2.824a33.455,33.455,0,0,0-3.812,1.781l-.006,0,0,0h0l0-.042-.291.062h0a.341.341,0,0,1-.058-.056l-.024-.035-.015-.038a.287.287,0,0,1-.013-.082,4.768,4.768,0,0,1,.9-1,7.291,7.291,0,0,1,1.164-.879,14.178,14.178,0,0,1,5.958-1.9C257.631,120.61,257.456,120.575,257.829,120.8Z" class="a"/><path d="M41.353,140.024a3.028,3.028,0,0,1,1.183.528c1.393.987,5.265,5,5.228,5.878l-.245.246-.246-.246v.008l0-.01,0,.009,0-.009,0,.008,0-.006h0l0-.007,0,.007-.006-.015,0,0-.007-.017v0c-.363-.846-4.791-4.82-5.706-5.148l-.016,0c-6.781-1.96-15.73-.373-18.913,5.639l-.324.121-.116-.325C24.9,139.864,34.261,137.94,41.353,140.024Z" class="b"/><path d="M37.741,177.4c2.89.929,6.09,1.836,9.573,2.71-5.757,16.381-36.847,99.045-37.094,99.6-1.594,3.574-6.006,2.572-4.186-2.411C6.359,276.414,32.564,197.682,37.741,177.4Z" class="b"/><path d="M44.518,179.089c3.152.832,2.933.675,3.067.88.355.8-36.331,99.21-37.082,100.524-2.173,3.533-6.552,2.092-5.272-2.673.337-1.274,26.209-78.189,31.94-99.229.36-1.317.333-1.257.366-1.322C37.781,176.96,37.55,177.238,44.518,179.089ZM6.232,279.048a2.431,2.431,0,0,0,.376,1.762c.807.985,2.256.172,2.918-1.063.09-.169,33.946-89.807,37.385-99.42-5.72-1.467-8.608-2.514-9-2.609C30.829,205.445,6.37,277.664,6.232,279.048Z" class="a"/><path d="M261.807,174.922c3.864,16.824,31.811,100.787,32.147,101.709,1.818,4.98-2.594,5.982-4.185,2.408-.263-.587-34.845-92.538-37.806-101.673Q256.89,176.208,261.807,174.922Z" class="b"/><path d="M261.932,174.715l.03.021.028.028a.27.27,0,0,1,.04.067l.012.036c-.256.058-.251.057,0,0,3.48,14.148,23.761,75.364,28.356,89.178,4.357,13.211,4.892,13.783,4.488,15.669-.453,2.117-2.986,2.922-4.836.886a5.117,5.117,0,0,1-.8-1.225c-1.028-2.4-37.881-100.894-37.576-102.112.166-.357-.092.034,9.147-2.344C261.843,174.664,261.8,174.647,261.932,174.715Zm-.373.525c-1.194.3-3.1.866-9.2,2.343.019.05.1.3.158.459,2.969,8.409,11.878,31.805,19.9,53.165,18.788,50.009,17.9,48.309,19.155,49.093a1.347,1.347,0,0,0,1.818-.177,1.49,1.49,0,0,0,.131-.192l.009-.022a1.9,1.9,0,0,0,.15-.363,2.975,2.975,0,0,0,.086-1.054c-.139-1.8-19.77-59.034-29.346-92.819C261.285,174.782,261.773,175.176,261.559,175.24Z" class="a"/></svg>